<svg width="548" height="376" viewBox="0 0 548 376" fill="none" xmlns="http://www.w3.org/2000/svg">
<path d="M444.901 376C442.096 376 428.07 375.847 428.07 372.553C428.07 372.093 428.439 371.71 428.882 371.71C429.251 371.71 429.62 372.016 429.694 372.399C430.432 373.242 436.19 374.391 444.975 374.391C453.981 374.391 459.812 373.242 460.477 372.399C460.477 371.94 460.772 371.633 461.215 371.633C461.658 371.633 461.953 372.093 461.953 372.553C461.879 375.847 447.706 376 444.901 376Z" fill="black"/>
<path d="M371.604 123.878H257.923C239.469 123.878 224.336 108.173 224.336 89.0204V34.8574C224.336 15.705 239.469 0 257.923 0H371.604C390.059 0 405.192 15.705 405.192 34.8574V89.0204C405.192 108.173 390.059 123.878 371.604 123.878Z" fill="#E9E039"/>
<path d="M353.291 219.947C353.291 219.947 356.687 216.346 355.801 210.217C354.915 204.089 354.103 199.569 347.829 197.577C341.554 195.585 334.763 194.972 332.474 188.46C332.474 188.46 331.884 185.013 333.139 176.509C334.394 168.005 338.749 145.023 338.749 145.023C338.749 145.023 339.413 133.684 328.414 128.398C317.489 123.112 307.376 122.882 307.376 122.882C307.376 122.882 291.136 123.648 284.492 125.717C277.849 127.785 277.111 137.591 277.184 141.575C277.258 145.559 277.184 150.002 277.184 150.002L311.362 175.36C311.362 175.36 304.645 179.65 302.504 190.452C300.363 201.254 302.726 211.673 309.148 215.886C315.57 220.023 330.629 221.556 341.776 213.818L353.291 219.947Z" fill="#1A1A1A"/>
<path d="M243.969 364.278L300.957 364.891C300.957 364.891 291.286 352.251 290.327 344.513C290.327 344.513 247.364 363.742 243.969 364.278Z" fill="#1A1A1A"/>
<path d="M64.6641 232.817L74.6296 227.378H213.556L221.602 230.749L226.548 237.337L258.586 336.547L259.988 344.285L259.176 350.72L254.895 358.074L250.318 362.058L245.224 364.28H236.514L100.245 365.046L64.6641 232.817Z" fill="white"/>
<path d="M461.071 336.163V334.401C461.071 334.401 457.159 331.873 444.019 331.873C430.953 331.873 428.812 335.014 428.812 335.014V373.012C428.812 373.012 433.094 375.234 444.831 375.234C456.568 375.234 460.776 373.012 460.776 373.012L461.366 366.807C461.366 366.807 475.909 365.351 475.909 351.638C475.909 337.925 467.715 337.542 461.071 336.163ZM461.293 361.444V341.679C461.293 341.679 470.594 340.376 470.963 348.727C471.48 358.38 461.293 361.444 461.293 361.444Z" fill="#1A1A1A"/>
<path d="M490.229 109.093H388.654C378.541 109.093 370.273 117.673 370.273 128.168V156.744V198.802L392.419 175.82H490.303C500.416 175.82 508.683 167.239 508.683 156.744V128.168C508.683 117.673 500.416 109.093 490.229 109.093Z" fill="#1A1A1A"/>
<path d="M126.376 149.389L117.149 122.192H64.6641L77.8038 160.65H129.477L126.376 149.389Z" fill="#E9E039"/>
<path d="M231.269 364.969H101.053C92.4903 364.969 84.8869 359.53 82.1557 351.409L51.2257 258.788C46.9442 245.994 56.5406 232.817 70.1232 232.817H200.339C208.902 232.817 216.506 238.256 219.237 246.377L250.093 338.922C254.448 351.715 244.852 364.969 231.269 364.969Z" fill="#1A1A1A"/>
<path d="M290.995 206.463C290.995 206.463 265.823 209.987 254.897 224.926C243.972 239.865 234.523 259.324 234.523 259.324L258.293 335.704C258.293 335.704 260.877 329.728 262.796 329.422C264.715 329.115 270.768 329.422 272.835 331.797C272.835 331.797 279.184 328.656 286.861 333.635C286.861 333.635 294.833 332.563 301.92 336.623C309.006 340.607 315.281 343.441 315.281 343.441C315.281 343.441 315.945 358.15 306.423 364.586L397.884 364.969C397.884 364.969 404.897 349.57 403.937 336.546C402.904 323.523 398.917 299.237 393.603 287.746C388.361 276.255 382.53 260.55 375.517 249.211C368.504 237.873 361.934 228.68 355.291 221.862L342.742 213.741C342.742 213.741 328.716 220.713 318.16 218.874C307.53 217.035 306.939 214.201 306.939 214.201C306.939 214.201 299.262 225.845 294.612 225.079C289.887 224.313 290.995 206.463 290.995 206.463Z" fill="#E9E039"/>
<path d="M444.606 334.401C437.445 334.401 431.688 335.627 431.688 337.159L444.606 337.925L457.524 337.159C457.524 335.704 451.766 334.401 444.606 334.401Z" fill="white"/>
<path d="M281.327 135.14C281.327 135.14 278.153 146.554 277.858 149.312C277.563 151.994 277.341 167.546 276.898 172.372C276.382 177.198 278.522 193.899 289.89 192.444L291.071 206.463C291.071 206.463 289.89 224.696 294.615 225.079C299.339 225.386 306.942 214.201 306.942 214.201C306.942 214.201 301.258 208.915 301.554 198.189C301.849 187.464 306.426 179.726 312.331 175.36C312.331 175.36 308.493 166.013 311.445 160.191C311.445 160.191 299.192 158.123 293.508 152.53C287.75 146.861 284.28 143.72 281.327 135.14Z" fill="white"/>
<path d="M315.642 343.671C315.642 343.671 306.858 338.002 299.402 335.397C291.946 332.792 287.886 333.635 287.886 333.635C287.886 333.635 282.055 331.26 279.176 330.877C276.297 330.494 273.27 332.103 273.27 332.103C273.27 332.103 270.539 329.498 266.7 329.422C262.862 329.422 259.909 331.567 258.359 335.627C258.359 335.627 260.647 342.215 259.983 345.969C259.392 349.647 256.956 359.529 250.312 362.057C250.312 362.057 254.225 367.19 260.057 361.751C260.057 361.751 263.969 365.811 274.008 364.969C274.008 364.969 282.276 365.735 285.081 362.747C287.886 359.836 291.282 353.4 291.282 353.4C291.282 353.4 293.496 365.505 305.16 365.045C305.16 365.045 309.515 363.666 312.689 356.618C315.937 349.57 315.642 343.671 315.642 343.671Z" fill="white"/>
<path d="M147.708 297.935C151.694 305.059 151.251 313.027 146.674 315.785C142.171 318.466 135.306 314.942 131.32 307.817C127.334 300.693 127.776 292.725 132.353 289.967C136.856 287.209 143.721 290.733 147.708 297.935Z" fill="white"/>
<path d="M132.656 165.247H202.415L219.762 216.269H150.225L132.656 165.247Z" fill="#E9E039"/>
<path d="M400.245 134.526C400.245 139.352 396.48 143.259 391.829 143.259C387.179 143.259 383.414 139.352 383.414 134.526C383.414 129.7 387.179 125.792 391.829 125.792C396.48 125.792 400.245 129.7 400.245 134.526Z" fill="white"/>
<path d="M440.479 134.526C440.479 139.352 436.714 143.259 432.064 143.259C427.413 143.259 423.648 139.352 423.648 134.526C423.648 129.7 427.413 125.792 432.064 125.792C436.714 125.792 440.479 129.7 440.479 134.526Z" fill="white"/>
<path d="M473.845 125.792C478.496 125.792 482.26 129.7 482.26 134.526C482.26 139.352 478.496 143.259 473.845 143.259C469.194 143.259 465.43 139.352 465.43 134.526C465.43 129.7 469.194 125.792 473.845 125.792Z" fill="white"/>
<path d="M283.241 190.758C283.241 190.758 276.08 200.641 282.134 208.225L290.992 206.463L289.811 192.444C289.885 192.444 285.012 192.367 283.241 190.758Z" fill="#1A1A1A"/>
<path d="M330.556 166.013C330.556 174.134 326.053 180.799 320.591 180.799C315.054 180.799 310.625 174.211 310.625 166.013C310.625 157.893 315.128 151.228 320.591 151.228C326.127 151.228 330.556 157.893 330.556 166.013Z" fill="#CCCCCC"/>
<path d="M322.516 180.799C326.43 180.799 329.603 174.351 329.603 166.397C329.603 158.442 326.43 151.994 322.516 151.994C318.602 151.994 315.43 158.442 315.43 166.397C315.43 174.351 318.602 180.799 322.516 180.799Z" fill="white"/>
<path d="M317.716 151.075C317.716 151.075 316.609 136.902 309.374 130.773C301.254 123.878 291.953 123.725 291.953 123.725C291.953 123.725 293.799 121.58 298.818 121.503C303.838 121.427 309.743 123.342 314.763 127.479C319.857 131.539 323.252 141.116 322.44 150.538L317.716 151.075Z" fill="#E9E039"/>
<path d="M315.206 343.365C315.206 343.365 299.408 333.866 293.134 333.712C286.859 333.559 287.819 333.559 287.819 333.559C287.819 333.559 276.303 328.656 273.867 330.954C273.867 330.954 281.987 319.616 296.603 320.842C311.293 322.144 315.279 341.297 315.206 343.365Z" fill="#1A1A1A"/>
<path d="M90.6441 114.149C90.3488 114.149 89.9797 113.919 89.9059 113.612C88.8724 110.625 88.1342 107.484 87.6175 104.343C87.5437 103.883 87.8389 103.5 88.2819 103.423C88.7248 103.347 89.0939 103.653 89.1677 104.113C89.6844 107.177 90.4226 110.242 91.3822 113.153C91.5299 113.612 91.3084 114.072 90.8655 114.225C90.7917 114.149 90.7179 114.149 90.6441 114.149ZM87.7651 95.6092C87.3222 95.6092 86.9531 95.2261 86.9531 94.7664C87.0269 91.5488 87.3222 88.3312 87.9128 85.1902C87.9866 84.7306 88.4295 84.4241 88.8724 84.5774C89.3153 84.654 89.6106 85.1136 89.463 85.5733C88.8724 88.6377 88.5771 91.7021 88.5033 94.8431C88.5033 95.2261 88.1342 95.6092 87.7651 95.6092ZM91.2346 77.1462C91.1608 77.1462 91.0131 77.1462 90.9393 77.0696C90.4964 76.9164 90.3488 76.4567 90.4964 75.9971C91.3084 73.9286 92.1942 71.9368 93.1539 70.0215C93.5968 69.1788 94.1135 68.2595 94.6303 67.4168C94.8517 67.0338 95.3684 66.8805 95.7375 67.187C96.1066 67.4168 96.2543 67.9531 95.959 68.3361C95.4423 69.1788 94.9994 70.0215 94.5564 70.8642C93.5968 72.7029 92.711 74.6947 91.9728 76.6866C91.8252 76.9164 91.5299 77.1462 91.2346 77.1462ZM151.766 75.3842C150.806 75.3842 149.773 75.1544 148.739 74.6181C148.37 74.4649 148.149 73.9286 148.37 73.5456C148.518 73.0859 149.035 72.9327 149.404 73.1625C150.216 73.5456 151.028 73.7754 151.766 73.7754C154.128 73.7754 155.235 71.7069 155.678 70.5578C155.826 70.0981 156.269 69.9449 156.712 70.0981C157.155 70.2514 157.302 70.711 157.155 71.1707C156.195 73.7754 154.202 75.3842 151.766 75.3842ZM142.317 68.5659C142.096 68.5659 141.8 68.4127 141.653 68.2595C139.881 65.7314 138.552 62.7436 137.74 59.4494C137.593 58.9897 137.888 58.5301 138.331 58.4535C138.774 58.3003 139.217 58.6067 139.291 59.0663C140.103 62.2073 141.284 64.9653 142.908 67.3402C143.129 67.7232 143.055 68.2595 142.76 68.4893C142.612 68.4893 142.465 68.5659 142.317 68.5659ZM156.047 62.3606C155.752 62.3606 155.457 62.1307 155.309 61.8243C154.571 59.8324 153.39 58.0704 151.914 56.6148C151.249 56.002 150.659 55.3891 149.92 54.8528C149.551 54.5464 149.477 54.0867 149.773 53.7037C150.068 53.3206 150.511 53.244 150.88 53.5504C151.618 54.1633 152.283 54.6996 152.947 55.3891C154.645 56.9979 155.9 58.9131 156.712 61.2114C156.859 61.6711 156.712 62.1307 156.269 62.284C156.195 62.3606 156.121 62.3606 156.047 62.3606ZM100.905 61.2114C100.683 61.2114 100.536 61.1348 100.388 60.9816C100.093 60.6751 100.093 60.1389 100.388 59.8324C102.529 57.4575 104.891 55.3891 107.401 53.5504C107.77 53.3206 108.287 53.3972 108.508 53.7803C108.73 54.1633 108.656 54.6996 108.287 54.9294C105.851 56.6914 103.562 58.6833 101.495 60.9816C101.274 61.1348 101.052 61.2114 100.905 61.2114ZM137.519 50.6393C137.002 50.6393 136.707 50.2562 136.707 49.7966C136.707 49.4135 136.707 49.0305 136.707 48.6474C135.673 48.4176 134.64 48.2644 133.533 48.1112C133.09 48.0345 132.794 47.6515 132.868 47.1918C132.942 46.7322 133.311 46.4257 133.754 46.5024C134.788 46.6556 135.821 46.8088 136.854 47.0386C137.002 44.8169 137.371 42.5187 137.962 40.297C138.036 39.8373 138.479 39.5309 138.921 39.6841C139.364 39.7607 139.586 40.2204 139.512 40.68C138.995 42.9017 138.626 45.2 138.479 47.4217C139.955 47.8047 141.431 48.2644 142.834 48.8773C143.277 49.0305 143.424 49.4901 143.277 49.9498C143.129 50.4094 142.612 50.5627 142.243 50.4095C140.988 49.8732 139.66 49.4901 138.331 49.1071C138.331 49.3369 138.331 49.6434 138.331 49.8732C138.257 50.2562 137.962 50.6393 137.519 50.6393ZM115.816 50.5627C115.521 50.5627 115.226 50.3328 115.078 50.0264C114.93 49.5667 115.078 49.1071 115.521 48.9539C117.071 48.2644 118.695 47.7281 120.319 47.3451C121.648 46.962 123.05 46.7322 124.527 46.5024C124.97 46.4257 125.339 46.7322 125.413 47.1918C125.486 47.6515 125.191 48.0345 124.748 48.1112C123.346 48.341 122.017 48.5708 120.762 48.8773C119.212 49.2603 117.662 49.7966 116.185 50.4095C115.964 50.5627 115.89 50.5627 115.816 50.5627ZM141.874 32.4062C141.727 32.4062 141.653 32.4062 141.505 32.3296C141.136 32.0997 140.988 31.6401 141.136 31.257C142.686 28.1926 144.458 25.6645 146.525 23.6727C146.82 23.3662 147.484 23.2896 147.78 23.5961C148.075 23.9025 148.149 24.3622 147.853 24.6686C145.713 26.7371 144.015 29.112 142.612 32.0231C142.391 32.253 142.169 32.4062 141.874 32.4062ZM154.276 18.8463C154.054 18.8463 153.833 18.7697 153.611 18.5398C153.316 18.1568 153.39 17.6971 153.759 17.3907C156.269 15.3988 158.852 13.6368 161.436 12.1046C161.805 11.8748 162.322 12.028 162.543 12.4111C162.765 12.7941 162.617 13.3304 162.248 13.5602C159.738 15.0924 157.228 16.7778 154.719 18.7697C154.571 18.7697 154.423 18.8463 154.276 18.8463ZM213.847 13.2538C213.7 13.2538 213.552 13.2538 213.404 13.1005C210.821 11.4917 208.089 10.1128 205.358 9.04023C204.915 8.88701 204.768 8.42735 204.915 7.96769C205.063 7.50803 205.506 7.2782 205.949 7.50803C208.828 8.65718 211.633 10.0362 214.29 11.7216C214.659 11.9514 214.807 12.4877 214.586 12.8707C214.364 13.1005 214.069 13.2538 213.847 13.2538ZM169.999 9.49988C169.704 9.49988 169.409 9.27006 169.261 8.96362C169.113 8.50396 169.261 8.0443 169.704 7.89108C172.657 6.66533 175.609 5.74601 178.562 5.13313C179.005 5.05652 179.374 5.36296 179.522 5.74601C179.595 6.20567 179.3 6.58872 178.931 6.74194C176.052 7.35481 173.173 8.27413 170.368 9.42327C170.221 9.42327 170.147 9.49988 169.999 9.49988ZM196.869 6.58872C193.99 6.05245 191.111 5.82262 188.38 5.82262H187.863C187.42 5.82262 187.051 5.43957 187.051 4.97991C187.051 4.52026 187.42 4.13721 187.863 4.13721H188.38C191.259 4.13721 194.212 4.44365 197.09 4.97991C197.533 5.05652 197.829 5.51618 197.755 5.97584C197.533 6.28228 197.238 6.58872 196.869 6.58872Z" fill="black"/>
<path d="M314.762 155.288C295.569 155.211 288.113 127.632 287.375 124.95C286.268 125.18 285.234 125.41 284.422 125.716C277.778 127.785 277.04 137.591 277.114 141.574C277.188 145.558 277.114 150.002 277.114 150.002L305.829 171.376C315.426 165.4 329.008 155.364 314.762 155.288Z" fill="white"/>
<path d="M309.448 200.257C307.381 187.157 314.616 177.964 314.616 177.964C314.616 177.964 319.635 164.557 319.266 163.408C318.971 162.489 304.576 163.868 297.047 164.71L311.368 175.359C311.368 175.359 304.65 179.649 302.509 190.451C300.369 201.253 302.731 211.672 309.153 215.886C313.213 218.49 320.816 220.099 328.641 218.873C319.414 217.877 311.072 210.676 309.448 200.257Z" fill="white"/>
<path d="M288.26 192.367C286.71 192.214 284.348 191.831 283.241 190.758C283.241 190.758 276.08 200.641 282.134 208.225L287.227 207.229C283.61 198.419 288.26 192.367 288.26 192.367Z" fill="white"/>
<path d="M441.66 315.938C434.794 315.938 429.553 313.563 426.084 308.736C420.99 301.765 421.138 291.959 422.467 287.439C424.46 280.621 424.017 278.399 422.614 271.657L422.393 270.661C421.433 266.065 423.057 260.626 426.379 256.795C429.627 253.041 434.13 251.356 439.224 251.892C444.391 252.428 448.303 254.727 450.665 258.557C453.249 262.694 453.618 268.363 451.847 274.032C449.041 282.842 451.92 286.52 451.994 286.596C456.349 291.499 459.081 300.692 456.202 307.741C454.725 311.341 451.182 315.708 442.472 316.014C442.25 315.938 441.955 315.938 441.66 315.938ZM437.378 253.424C432.58 253.424 429.406 255.799 427.56 257.868C424.607 261.238 423.131 266.295 423.943 270.355L424.165 271.351C425.567 278.246 426.084 280.774 423.943 287.975C422.614 292.495 422.762 301.688 427.265 307.817C430.587 312.337 435.754 314.559 442.472 314.329C448.672 314.099 452.88 311.648 454.799 307.051C457.383 300.692 454.725 292.112 450.813 287.669C450.665 287.516 447.196 283.379 450.296 273.496C451.994 268.287 451.625 263.154 449.263 259.476C447.196 256.106 443.653 254.114 439.002 253.577C438.485 253.501 437.895 253.424 437.378 253.424Z" fill="black"/>
<path d="M418.111 243.389C414.567 243.389 411.836 239.175 411.836 233.812C411.836 228.45 414.567 224.236 418.111 224.236C421.654 224.236 424.459 228.45 424.459 233.812C424.459 239.098 421.58 243.389 418.111 243.389ZM418.111 225.845C415.527 225.845 413.386 229.446 413.386 233.812C413.386 238.102 415.527 241.78 418.111 241.78C420.694 241.78 422.835 238.179 422.835 233.812C422.835 229.522 420.694 225.845 418.111 225.845Z" fill="black"/>
<path d="M461.15 362.364C460.781 362.364 460.485 362.134 460.411 361.751C460.338 361.291 460.559 360.908 461.002 360.755C461.371 360.679 469.713 358.61 470.229 349.953C470.377 347.655 469.786 345.893 468.531 344.667C465.948 342.139 461.297 342.599 461.223 342.599C460.78 342.675 460.411 342.292 460.338 341.833C460.264 341.373 460.633 340.99 461.076 340.913C461.297 340.913 466.538 340.377 469.639 343.441C471.263 345.05 471.927 347.272 471.779 350.03C471.189 359.912 461.371 362.287 461.297 362.364C461.223 362.287 461.15 362.364 461.15 362.364Z" fill="black"/>
<path d="M461.441 367.649C461.072 367.649 460.703 367.343 460.629 366.883C460.556 366.424 460.925 366.041 461.368 365.964C461.958 365.887 476.131 364.279 475.098 350.106C474.803 345.739 473.4 342.368 470.816 340.223C466.83 336.776 461.368 337.389 461.294 337.389C460.851 337.465 460.482 337.082 460.408 336.699C460.334 336.239 460.703 335.856 461.072 335.78C461.294 335.78 467.199 335.09 471.776 338.921C474.655 341.372 476.279 345.126 476.648 349.953C477.755 365.734 461.589 367.573 461.441 367.573C461.515 367.649 461.515 367.649 461.441 367.649Z" fill="black"/>
<path d="M428.82 373.395C428.377 373.395 428.008 373.012 428.008 372.552V335.014C428.008 334.554 428.377 334.171 428.82 334.171C429.263 334.171 429.632 334.554 429.632 335.014V372.552C429.632 373.012 429.263 373.395 428.82 373.395Z" fill="black"/>
<path d="M461.148 373.396C460.705 373.396 460.336 373.013 460.336 372.553V334.785C460.336 334.325 460.705 333.942 461.148 333.942C461.591 333.942 461.96 334.325 461.96 334.785V372.63C461.886 373.013 461.591 373.396 461.148 373.396Z" fill="black"/>
<path d="M444.975 338.998C444.31 338.998 428.07 338.921 428.07 335.014C428.07 331.107 444.31 331.03 444.975 331.03C445.639 331.03 461.879 331.107 461.879 335.014C461.879 338.998 445.639 338.998 444.975 338.998ZM429.694 335.014C430.359 335.857 435.821 337.389 444.975 337.389C454.424 337.389 459.886 335.857 460.329 335.014C459.886 334.248 454.424 332.716 444.975 332.716C435.747 332.716 430.285 334.171 429.694 335.014Z" fill="black"/>
<path d="M352.705 220.712C352.41 220.712 352.188 220.559 352.041 220.329C351.819 219.946 351.967 219.41 352.336 219.18C355.436 217.341 355.363 212.438 354.994 209.757C354.403 204.854 352.558 201.406 349.531 199.338C348.867 198.878 348.128 198.495 347.243 198.112C345.84 197.499 344.364 197.116 342.813 196.657C339.713 195.814 336.539 194.971 334.103 192.596C331.888 190.528 330.929 187.08 331.445 183.327C334.546 159.501 337.646 146.171 337.941 144.792C337.572 138.586 334.767 133.607 329.674 130.006C322.513 125.027 312.4 123.724 305.24 123.571C304.797 123.571 304.428 123.188 304.502 122.728C304.502 122.269 304.871 121.962 305.314 121.962C312.769 122.115 323.178 123.418 330.633 128.704C336.244 132.611 339.27 138.05 339.639 144.868C339.639 144.945 339.639 145.022 339.639 145.098C339.639 145.251 336.391 158.582 333.143 183.556C332.7 186.774 333.512 189.685 335.358 191.371C337.499 193.439 340.377 194.205 343.404 195.048C344.954 195.507 346.578 195.891 348.055 196.503C349.014 196.886 349.826 197.346 350.564 197.806C354.034 200.104 356.101 204.011 356.765 209.374C357.43 214.813 356.175 218.72 353.296 220.482C352.927 220.712 352.853 220.712 352.705 220.712Z" fill="black"/>
<path d="M277.478 148.929C277.109 148.929 276.74 148.623 276.666 148.163C274.23 126.099 285.746 124.184 286.189 124.107C287.075 123.724 288.625 123.341 290.47 122.958C290.913 122.882 291.282 123.188 291.43 123.648C291.504 124.107 291.208 124.49 290.765 124.644C289.068 124.95 287.591 125.333 286.632 125.716C286.041 125.793 276.002 127.631 278.29 148.01C278.364 148.469 277.995 148.852 277.626 148.929C277.552 148.929 277.552 148.929 277.478 148.929Z" fill="black"/>
<path d="M379.951 348.957C379.729 348.957 379.582 348.88 379.434 348.727C354.114 325.744 297.274 321.99 296.683 321.99C296.241 321.99 295.945 321.607 295.945 321.147C295.945 320.688 296.388 320.458 296.757 320.381C297.348 320.381 354.779 324.212 380.468 347.578C380.763 347.884 380.837 348.42 380.541 348.727C380.394 348.88 380.172 348.957 379.951 348.957Z" fill="black"/>
<path d="M398.327 365.122C398.18 365.122 398.106 365.122 397.958 365.045C397.589 364.816 397.442 364.356 397.589 363.973C414.125 330.801 389.026 273.267 373.451 247.45C369.464 240.861 365.035 233.813 359.942 227.608C355.291 221.939 349.09 218.338 342.004 214.507C341.635 214.278 341.487 213.818 341.635 213.358C341.856 212.975 342.299 212.822 342.742 212.975C349.681 216.729 356.325 220.636 361.123 226.459C366.364 232.817 370.793 239.865 374.779 246.53C391.684 274.569 415.822 330.954 398.992 364.662C398.844 364.969 398.623 365.122 398.327 365.122Z" fill="black"/>
<path d="M234.589 260.09C234.515 260.09 234.368 260.09 234.294 260.014C233.925 259.861 233.703 259.324 233.851 258.941C234.146 258.252 234.441 257.486 234.737 256.796C246.917 227.684 263.083 211.367 284.269 206.847C285.893 206.464 290.913 205.621 290.913 205.621L291.208 207.23C291.208 207.23 286.262 208.149 284.638 208.455C263.674 212.899 248.319 228.451 236.213 257.409C235.918 258.098 235.623 258.788 235.327 259.554C235.18 259.86 234.884 260.09 234.589 260.09Z" fill="black"/>
<path d="M289.81 193.209C288.334 193.209 286.71 193.056 285.159 192.52C281.838 191.447 279.549 188.842 278.22 184.705C276.227 178.347 276.301 171.682 276.449 165.17V164.327C276.523 160.88 276.596 157.356 276.744 153.908L276.892 148.775C276.892 148.622 276.892 148.469 276.966 148.392C277.113 147.933 277.556 147.703 277.925 147.856C278.368 148.009 278.59 148.469 278.442 148.852L278.294 153.985C278.22 157.432 278.073 160.956 277.999 164.404V165.247C277.925 171.605 277.778 178.194 279.697 184.246C280.878 187.846 282.797 190.068 285.602 190.987C287.3 191.524 289.367 191.753 291.951 191.447C294.534 191.217 298.373 190.758 301.03 190.221C301.473 190.145 301.916 190.451 301.99 190.834C302.064 191.294 301.769 191.677 301.399 191.83C298.668 192.366 294.756 192.903 292.172 193.132C291.434 193.209 290.696 193.209 289.81 193.209Z" fill="black"/>
<path d="M311.363 160.957C290.103 156.896 283.607 143.413 281.688 136.978C280.949 140.195 279.694 145.022 278.439 148.852C278.292 149.312 277.849 149.465 277.406 149.389C276.963 149.235 276.742 148.776 276.889 148.316C278.956 142.187 280.876 133.301 280.876 133.224C280.949 132.841 281.245 132.611 281.688 132.611C282.057 132.611 282.352 132.918 282.426 133.377C282.5 134.22 284.714 154.292 311.436 159.424C311.879 159.501 312.175 159.961 312.101 160.344C312.101 160.727 311.732 160.957 311.363 160.957Z" fill="black"/>
<path d="M297.564 157.74C296.9 157.663 296.531 157.893 296.309 160.268C296.088 162.872 296.752 163.332 297.343 163.332C297.933 163.332 298.45 162.489 298.45 160.651C298.45 158.735 298.376 157.893 297.564 157.74Z" fill="black"/>
<path d="M279.995 156.667C279.331 156.514 278.961 156.82 278.666 159.195C278.371 161.8 279.035 162.336 279.626 162.336C280.216 162.336 280.807 161.57 280.807 159.655C280.881 157.739 280.807 156.82 279.995 156.667Z" fill="black"/>
<path d="M277.7 151.916C277.479 151.916 277.257 151.84 277.11 151.61C276.815 151.304 276.888 150.767 277.184 150.461C278.143 149.542 279.915 148.469 283.237 149.388C283.68 149.542 283.901 149.925 283.827 150.384C283.754 150.844 283.311 151.074 282.868 150.997C280.284 150.308 279.103 150.921 278.217 151.687C278.069 151.84 277.848 151.916 277.7 151.916Z" fill="black"/>
<path d="M294.834 225.846C294.465 225.846 294.17 225.769 293.801 225.692C289.298 223.854 289.962 209.298 290.183 206.387L289.445 192.674C289.445 192.214 289.741 191.831 290.183 191.831C290.626 191.831 290.996 192.137 290.996 192.597L291.734 206.387C291.365 212.745 291.66 223.088 294.391 224.16C296.606 225.079 302.954 218.721 306.645 213.818C306.94 213.435 307.383 213.435 307.752 213.665C308.121 213.971 308.121 214.431 307.9 214.814C306.424 216.806 299.263 225.846 294.834 225.846Z" fill="black"/>
<path d="M281.906 208.225C281.685 208.225 281.389 208.071 281.242 207.842C275.262 199.031 283.087 190.451 283.161 190.375C283.456 190.068 283.973 190.068 284.268 190.375C284.563 190.681 284.563 191.217 284.268 191.524C283.973 191.83 277.255 199.185 282.497 206.846C282.718 207.229 282.644 207.765 282.275 207.995C282.201 208.225 282.054 208.225 281.906 208.225Z" fill="black"/>
<path d="M321.043 219.946C317.057 219.946 313.144 219.179 309.749 217.111C304.212 213.74 301.186 207.458 300.595 198.342C299.931 186.697 307.608 177.734 311.742 174.593C312.111 174.286 312.554 174.363 312.849 174.746C313.07 175.129 312.997 175.589 312.701 175.895C308.789 178.806 301.555 187.31 302.145 198.188C302.662 206.692 305.467 212.591 310.487 215.655C322.003 222.704 341.712 212.974 341.934 212.897C342.303 212.668 342.819 212.897 342.967 213.281C343.188 213.664 342.967 214.2 342.598 214.353C342.081 214.736 331.525 219.946 321.043 219.946Z" fill="black"/>
<path d="M347.761 331.872C347.244 331.796 346.949 331.413 346.949 330.953C349.68 302.454 334.326 255.109 334.178 254.65C334.031 254.19 334.252 253.731 334.695 253.577C335.138 253.424 335.581 253.654 335.729 254.114C335.876 254.573 351.304 302.301 348.573 331.106C348.499 331.489 348.204 331.872 347.761 331.872Z" fill="black"/>
<path d="M290.475 180.032C289.736 180.032 288.924 179.879 288.112 179.649C287.669 179.496 287.448 179.113 287.522 178.653C287.669 178.194 288.112 177.964 288.481 178.04C290.253 178.577 291.729 178.423 292.763 177.657C294.608 176.355 294.83 173.674 294.83 173.674C294.904 173.214 295.273 172.907 295.716 172.907C296.159 172.984 296.454 173.367 296.454 173.827C296.454 173.98 296.085 177.351 293.723 179.036C292.763 179.649 291.656 180.032 290.475 180.032Z" fill="black"/>
<path d="M362.817 135.369H335.578C335.135 135.369 334.766 134.986 334.766 134.527C334.766 134.067 335.135 133.684 335.578 133.684H362.817C363.26 133.684 363.629 134.067 363.629 134.527C363.629 134.986 363.26 135.369 362.817 135.369Z" fill="black"/>
<path d="M277.188 135.37H265.008C246.775 135.37 231.938 119.971 231.938 101.049V44.1278C231.938 25.2052 246.775 9.80664 265.008 9.80664H381.273C399.506 9.80664 414.343 25.2052 414.343 44.1278V101.049C414.343 101.508 413.974 101.891 413.531 101.891C413.088 101.891 412.719 101.508 412.719 101.049V44.1278C412.719 26.1245 398.62 11.4154 381.199 11.4154H265.008C247.661 11.4154 233.488 26.0479 233.488 44.1278V101.049C233.488 119.052 247.587 133.761 265.008 133.761H277.188C277.631 133.761 278 134.144 278 134.604C277.926 134.987 277.631 135.37 277.188 135.37Z" fill="black"/>
<path d="M146.009 310.576C144.459 310.576 142.835 310.116 141.137 309.274C138.111 307.665 135.306 304.83 133.313 301.23C129.105 293.722 129.695 285.218 134.567 282.307C139.513 279.396 146.821 283.073 151.029 290.581C155.237 298.089 154.646 306.592 149.774 309.504C148.667 310.193 147.412 310.576 146.009 310.576ZM138.406 282.92C137.299 282.92 136.339 283.15 135.379 283.686C131.246 286.138 130.95 293.645 134.641 300.387C136.487 303.681 138.997 306.286 141.802 307.741C144.459 309.12 146.969 309.274 148.962 308.048C153.096 305.596 153.391 298.089 149.7 291.347C146.821 286.138 142.245 282.92 138.406 282.92Z" fill="black"/>
<path d="M524.041 365.734H467.57C467.127 365.734 466.758 365.351 466.758 364.891C466.758 364.432 467.127 364.049 467.57 364.049H524.041C524.484 364.049 524.853 364.432 524.853 364.891C524.853 365.428 524.484 365.734 524.041 365.734Z" fill="black"/>
<path d="M428.812 365.734H0.812005C0.369093 365.734 0 365.351 0 364.891C0 364.432 0.369093 364.049 0.812005 364.049H428.886C429.329 364.049 429.698 364.432 429.698 364.891C429.624 365.428 429.255 365.734 428.812 365.734Z" fill="black"/>
<path d="M240.124 365.735C239.681 365.735 239.312 365.352 239.312 364.892C239.312 364.432 239.681 364.049 240.124 364.049C246.325 364.049 252.009 361.061 255.626 355.852C259.243 350.642 260.203 344.131 258.284 338.002L227.354 241.32C224.77 233.2 217.462 227.684 209.194 227.684H78.9782C77.5756 227.684 76.0992 227.837 74.7705 228.144C74.3276 228.22 73.8847 227.99 73.8109 227.531C73.737 227.071 73.9585 226.611 74.4014 226.535C75.8778 226.152 77.428 225.999 78.9782 225.999H209.194C218.126 225.999 226.025 231.897 228.83 240.708L259.686 337.466C261.827 344.131 260.72 351.102 256.807 356.771C252.969 362.517 246.842 365.735 240.124 365.735Z" fill="black"/>
<path d="M231.27 365.735H101.054C92.1216 365.735 84.223 360.066 81.4179 351.639L50.4879 259.094C48.421 252.965 49.3806 246.377 52.9977 241.014C56.8363 235.422 63.2585 232.051 70.1237 232.051H200.34C209.272 232.051 217.17 237.72 219.975 246.147L250.832 338.692C252.898 344.82 251.939 351.409 248.322 356.772C244.483 362.364 238.135 365.735 231.27 365.735ZM70.1237 233.66C63.7753 233.66 57.8698 236.801 54.3265 241.934C50.9308 246.837 50.1188 252.889 51.9643 258.558L82.8204 351.102C85.4041 358.84 92.7122 364.126 100.98 364.126H231.196C237.544 364.126 243.45 361.062 246.993 355.852C250.389 350.949 251.201 344.897 249.355 339.228L218.499 246.683C215.915 238.946 208.607 233.66 200.34 233.66H70.1237Z" fill="black"/>
<path d="M278.302 365.734C275.275 365.734 273.208 364.891 272.248 363.206C270.329 359.988 272.987 354.779 275.054 350.565C275.497 349.722 275.866 348.88 276.235 348.19C276.604 347.424 276.899 346.505 277.268 345.585C279.483 339.763 282.805 330.953 294.32 333.022C294.911 333.175 307.755 337.005 315.654 342.674C316.023 342.904 316.097 343.44 315.875 343.823C315.654 344.206 315.137 344.283 314.768 344.053C307.091 338.537 294.099 334.707 293.951 334.63C283.69 332.792 280.811 340.529 278.671 346.198C278.302 347.194 277.933 348.114 277.563 348.88C277.268 349.569 276.825 350.412 276.382 351.331C274.611 354.932 272.101 359.911 273.503 362.363C274.168 363.512 275.718 364.048 278.228 364.048C288.784 364.048 290.629 350.259 290.629 350.105C290.629 349.646 290.998 349.263 291.441 349.263C291.884 349.263 292.253 349.646 292.253 350.105C292.253 352.174 289.522 365.734 278.302 365.734Z" fill="black"/>
<path d="M268.914 365.735C262.566 365.276 260.351 362.977 259.613 361.139C258.579 358.534 259.834 355.853 261.311 354.091C262.492 352.712 263.747 349.417 265.075 345.97C266.921 341.067 268.988 335.551 271.867 332.257C277.108 326.358 287.885 332.563 288.328 332.87C288.697 333.1 288.845 333.636 288.624 334.019C288.402 334.402 287.885 334.555 287.516 334.325C287.442 334.249 277.403 328.426 273.048 333.406C270.39 336.394 268.323 341.833 266.552 346.583C265.149 350.413 263.894 353.631 262.492 355.24C261.384 356.542 260.351 358.687 261.089 360.526C261.901 362.594 264.632 363.82 268.988 364.126C269.431 364.126 269.726 364.586 269.726 364.969C269.652 365.429 269.283 365.735 268.914 365.735Z" fill="black"/>
<path d="M306.28 365.811C305.985 365.811 305.689 365.811 305.468 365.811C291.295 365.045 290.188 353.094 290.188 352.941C290.188 352.481 290.483 352.098 290.926 352.021C291.369 352.021 291.738 352.328 291.811 352.788C291.811 353.247 292.771 363.436 305.542 364.126C306.354 364.202 307.092 364.126 307.756 364.049C308.125 363.973 308.568 364.356 308.642 364.739C308.716 365.198 308.421 365.581 307.978 365.658C307.461 365.735 306.87 365.811 306.28 365.811Z" fill="black"/>
<path d="M305.828 365.735C305.533 365.735 305.311 365.582 305.164 365.352C304.942 364.969 305.016 364.433 305.385 364.203C312.472 359.377 316.089 350.337 314.76 341.22C312.841 328.733 301.99 320.076 290.622 321.915C286.857 322.528 281.173 324.213 274.529 331.491C274.234 331.797 273.717 331.874 273.422 331.567C273.127 331.261 273.053 330.725 273.422 330.418C280.361 322.757 286.414 320.995 290.4 320.306C302.58 318.237 314.317 327.584 316.31 340.99C317.787 350.72 313.874 360.373 306.271 365.582C306.123 365.735 305.976 365.735 305.828 365.735Z" fill="black"/>
<path d="M258.58 336.777C257.99 336.624 257.695 336.164 257.842 335.781C257.916 335.551 259.245 330.418 263.083 328.733C267.955 326.664 273.492 331.261 273.713 331.491C274.082 331.797 274.082 332.333 273.861 332.64C273.566 333.023 273.049 333.023 272.754 332.793C272.68 332.716 267.734 328.58 263.748 330.265C260.647 331.644 259.393 336.164 259.393 336.241C259.245 336.547 258.95 336.777 258.58 336.777Z" fill="black"/>
<path d="M254.455 364.891C253.053 364.891 251.429 364.508 249.657 363.512C249.288 363.282 249.14 362.823 249.362 362.363C249.583 361.98 250.1 361.827 250.469 362.057C256.153 365.351 259.77 360.831 259.918 360.678C260.213 360.295 260.656 360.295 261.025 360.525C261.394 360.831 261.394 361.291 261.173 361.674C261.099 361.674 258.515 364.891 254.455 364.891Z" fill="black"/>
<path d="M322.218 181.642H320.372C314.54 181.642 309.742 174.671 309.742 166.014C309.742 157.433 314.54 150.385 320.372 150.385H321.701C322.144 150.385 322.513 150.768 322.513 151.228C322.513 151.688 322.144 152.071 321.701 152.071H320.372C315.426 152.071 311.366 158.353 311.366 166.014C311.366 173.675 315.426 179.957 320.372 179.957H322.218C322.66 179.957 323.03 180.34 323.03 180.799C323.03 181.259 322.66 181.642 322.218 181.642Z" fill="black"/>
<path d="M322.513 181.642C317.714 181.642 314.023 174.824 314.023 166.014C314.023 157.28 317.788 150.385 322.513 150.385C327.311 150.385 331.002 157.204 331.002 166.014C331.002 174.747 327.311 181.642 322.513 181.642ZM322.513 152.071C318.748 152.071 315.574 158.429 315.574 166.014C315.574 173.598 318.748 179.957 322.513 179.957C326.277 179.957 329.452 173.598 329.452 166.014C329.452 158.506 326.277 152.071 322.513 152.071Z" fill="black"/>
<path d="M277.196 179.189C276.974 179.189 276.827 179.113 276.679 178.96C273.726 176.355 272.25 171.988 272.25 166.012C272.25 160.42 273.8 156.053 276.679 153.295C276.974 152.989 277.491 152.989 277.786 153.372C278.082 153.678 278.082 154.215 277.713 154.521C275.129 156.896 273.8 160.88 273.8 166.012C273.8 171.452 275.129 175.435 277.713 177.657C278.082 177.964 278.082 178.5 277.786 178.806C277.639 179.036 277.417 179.189 277.196 179.189Z" fill="black"/>
<path d="M323.098 151.917C322.655 151.917 322.286 151.534 322.286 151.075C323.098 125.64 306.046 123.802 305.234 123.572C305.16 123.572 305.086 123.495 305.012 123.495C300.583 122.193 296.449 122.269 294.309 123.112C298.516 123.725 306.562 125.717 312.247 131.999C316.602 136.825 318.669 143.26 318.447 151.075C318.447 151.534 318.078 151.841 317.635 151.841C317.192 151.841 316.823 151.458 316.897 150.998C317.119 143.643 315.199 137.591 311.139 133.148C303.757 124.951 291.725 124.491 291.577 124.491C291.208 124.491 290.913 124.261 290.839 123.955C290.765 123.648 290.839 123.265 291.134 123.035C291.356 122.882 297.335 119.511 305.603 121.197C307.374 121.656 324.796 125.257 323.91 151.151C323.91 151.611 323.541 151.917 323.098 151.917Z" fill="black"/>
<path d="M261.685 331.414C261.315 331.414 261.02 331.184 260.946 330.801C247.585 280.468 258.215 249.135 258.289 248.828C258.437 248.369 258.879 248.216 259.322 248.369C259.765 248.522 259.913 248.982 259.765 249.441C259.691 249.748 249.209 280.621 262.423 330.418C262.57 330.877 262.275 331.337 261.906 331.414C261.832 331.337 261.758 331.414 261.685 331.414Z" fill="black"/>
<path d="M63.1825 234.886C62.8872 234.886 62.6657 234.733 62.5181 234.503C62.2967 234.12 62.4443 233.583 62.8134 233.354L74.2553 226.689C74.6244 226.459 75.1411 226.612 75.3626 226.995C75.584 227.378 75.4364 227.914 75.0673 228.144L63.6254 234.809C63.4039 234.886 63.3301 234.886 63.1825 234.886Z" fill="black"/>
<path d="M489.938 203.168C491.858 203.168 493.408 201.559 493.408 199.567C493.408 197.576 491.858 195.967 489.938 195.967C488.019 195.967 486.469 197.576 486.469 199.567C486.469 201.559 488.019 203.168 489.938 203.168Z" fill="#1A1A1A"/>
<path d="M516.734 203.398C518.727 203.398 520.351 201.713 520.351 199.644C520.351 197.576 518.727 195.89 516.734 195.89C514.741 195.89 513.117 197.576 513.117 199.644C513.117 201.713 514.741 203.398 516.734 203.398Z" fill="#1A1A1A"/>
<path d="M543.528 203.091C545.374 203.091 546.924 201.559 546.924 199.567C546.924 197.652 545.448 196.043 543.528 196.043C541.683 196.043 540.133 197.575 540.133 199.567C540.207 201.559 541.683 203.091 543.528 203.091Z" fill="#1A1A1A"/>
<path d="M489.937 231.208C491.931 231.208 493.555 229.523 493.555 227.454C493.555 225.386 491.931 223.7 489.937 223.7C487.944 223.7 486.32 225.386 486.32 227.454C486.32 229.523 487.944 231.208 489.937 231.208Z" fill="#1A1A1A"/>
<path d="M516.729 231.361C518.796 231.361 520.568 229.599 520.568 227.377C520.568 225.232 518.87 223.394 516.729 223.394C514.662 223.394 512.891 225.156 512.891 227.377C512.964 229.599 514.662 231.361 516.729 231.361Z" fill="#1A1A1A"/>
<path d="M543.535 231.131C545.455 231.131 547.079 229.522 547.079 227.454C547.079 225.462 545.529 223.777 543.535 223.777C541.616 223.777 539.992 225.385 539.992 227.454C540.066 229.446 541.616 231.131 543.535 231.131Z" fill="#1A1A1A"/>
<path d="M489.935 258.787C491.81 258.787 493.33 257.21 493.33 255.263C493.33 253.317 491.81 251.739 489.935 251.739C488.059 251.739 486.539 253.317 486.539 255.263C486.539 257.21 488.059 258.787 489.935 258.787Z" fill="#1A1A1A"/>
<path d="M516.731 258.94C518.65 258.94 520.274 257.331 520.274 255.262C520.274 253.27 518.724 251.585 516.731 251.585C514.812 251.585 513.188 253.194 513.188 255.262C513.188 257.254 514.812 258.94 516.731 258.94Z" fill="#1A1A1A"/>
<path d="M543.533 258.71C545.378 258.71 546.855 257.178 546.855 255.263C546.855 253.348 545.378 251.815 543.533 251.815C541.687 251.815 540.211 253.348 540.211 255.263C540.285 257.178 541.761 258.71 543.533 258.71Z" fill="#1A1A1A"/>
<path d="M362.812 192.52C362.738 192.52 362.591 192.52 362.517 192.444C362.221 192.29 362 191.984 362 191.678V120.967C362 110.012 370.637 101.048 381.193 101.048H482.767C493.323 101.048 501.96 110.012 501.96 120.967V149.542C501.96 160.497 493.323 169.461 482.767 169.461H385.327L363.403 192.214C363.255 192.367 363.033 192.52 362.812 192.52ZM381.267 102.657C371.523 102.657 363.624 110.854 363.624 120.967V189.686L384.441 168.082C384.588 167.929 384.81 167.852 385.031 167.852H482.915C492.659 167.852 500.558 159.655 500.558 149.542V120.967C500.558 110.854 492.659 102.657 482.915 102.657H381.267Z" fill="black"/>
<path d="M432.063 144.026C426.97 144.026 422.836 139.736 422.836 134.45C422.836 129.164 426.97 124.874 432.063 124.874C437.157 124.874 441.291 129.164 441.291 134.45C441.217 139.813 437.083 144.026 432.063 144.026ZM432.063 126.636C427.856 126.636 424.46 130.16 424.46 134.527C424.46 138.893 427.856 142.417 432.063 142.417C436.271 142.417 439.667 138.893 439.667 134.527C439.667 130.16 436.271 126.636 432.063 126.636Z" fill="black"/>
<path d="M391.821 144.026C386.728 144.026 382.594 139.736 382.594 134.45C382.594 129.164 386.728 124.874 391.821 124.874C396.915 124.874 401.048 129.164 401.048 134.45C401.048 139.813 396.915 144.026 391.821 144.026ZM391.821 126.636C387.613 126.636 384.218 130.16 384.218 134.527C384.218 138.893 387.613 142.417 391.821 142.417C396.029 142.417 399.424 138.893 399.424 134.527C399.424 130.16 396.029 126.636 391.821 126.636Z" fill="black"/>
<path d="M473.837 144.026C468.743 144.026 464.609 139.736 464.609 134.45C464.609 129.164 468.743 124.874 473.837 124.874C478.93 124.874 483.064 129.164 483.064 134.45C483.064 139.813 478.93 144.026 473.837 144.026ZM473.837 126.636C469.629 126.636 466.233 130.16 466.233 134.527C466.233 138.893 469.629 142.417 473.837 142.417C478.044 142.417 481.44 138.893 481.44 134.527C481.44 130.16 478.044 126.636 473.837 126.636Z" fill="black"/>
<path d="M210.895 207.153H141.357C140.914 207.153 140.545 206.77 140.545 206.31C140.545 205.85 140.914 205.467 141.357 205.467H209.787L192.957 156.054H123.789C123.346 156.054 122.977 155.671 122.977 155.211C122.977 154.752 123.346 154.369 123.789 154.369H193.547C193.916 154.369 194.212 154.598 194.285 154.905L211.707 205.927C211.78 206.157 211.78 206.463 211.633 206.693C211.411 206.999 211.116 207.153 210.895 207.153Z" fill="black"/>
<path d="M141.353 207.153C141.058 207.153 140.689 206.923 140.615 206.617L123.194 155.595C123.046 155.135 123.268 154.675 123.711 154.522C124.154 154.369 124.597 154.599 124.744 155.058L142.165 206.08C142.313 206.54 142.092 207 141.649 207.153C141.501 207.153 141.427 207.153 141.353 207.153Z" fill="black"/>
<path d="M127.55 166.856H87.8354C87.3925 166.856 87.0234 166.473 87.0234 166.013C87.0234 165.553 87.3925 165.17 87.8354 165.17H127.55C127.993 165.17 128.362 165.553 128.362 166.013C128.362 166.473 127.993 166.856 127.55 166.856Z" fill="black"/>
<path d="M136.636 156.131C136.34 156.131 135.971 155.901 135.897 155.595L126.596 128.398H74.5542C74.1113 128.398 73.7422 128.015 73.7422 127.556C73.7422 127.096 74.1113 126.713 74.5542 126.713H127.187C127.556 126.713 127.851 126.943 127.925 127.249L137.374 154.982C137.521 155.442 137.3 155.901 136.857 156.054C136.857 156.131 136.709 156.131 136.636 156.131Z" fill="black"/>
<path d="M87.8375 166.857C87.5422 166.857 87.1731 166.627 87.0993 166.321L73.9596 127.862C73.812 127.403 74.0334 126.943 74.4763 126.79C74.9193 126.637 75.3622 126.867 75.5098 127.326L88.6495 165.784C88.7972 166.244 88.5757 166.704 88.1328 166.857C88.059 166.78 87.9113 166.857 87.8375 166.857Z" fill="black"/>
<path d="M187.581 176.432H143.437C142.994 176.432 142.625 176.049 142.625 175.589C142.625 175.129 142.994 174.746 143.437 174.746H187.581C188.023 174.746 188.393 175.129 188.393 175.589C188.393 176.049 188.023 176.432 187.581 176.432Z" fill="black"/>
<path d="M191.19 186.85H147.046C146.603 186.85 146.234 186.467 146.234 186.008C146.234 185.548 146.603 185.165 147.046 185.165H191.19C191.633 185.165 192.002 185.548 192.002 186.008C192.002 186.467 191.633 186.85 191.19 186.85Z" fill="black"/>
<path d="M114.047 215.579C113.899 215.579 113.678 215.503 113.604 215.426C111.168 213.511 108.806 211.366 106.665 209.144C106.37 208.838 106.37 208.301 106.665 207.995C106.961 207.689 107.477 207.689 107.773 207.995C109.913 210.217 112.202 212.208 114.564 214.124C114.933 214.43 115.007 214.89 114.711 215.273C114.564 215.503 114.269 215.579 114.047 215.579ZM101.203 202.249C100.981 202.249 100.686 202.173 100.538 201.943C98.6928 199.415 97.0688 196.733 95.5186 193.899C95.2972 193.516 95.4448 192.979 95.8139 192.75C96.183 192.52 96.6997 192.673 96.9212 193.056C98.3976 195.814 100.022 198.419 101.793 200.87C102.088 201.253 102.015 201.79 101.646 202.019C101.572 202.249 101.424 202.249 101.203 202.249ZM92.4183 185.778C92.123 185.778 91.8277 185.548 91.6801 185.242C91.0157 183.48 90.4252 181.718 89.8346 179.803C89.687 179.343 89.9084 178.883 90.3513 178.807C90.7943 178.653 91.2372 178.883 91.311 179.343C91.8277 181.182 92.4183 182.944 93.0826 184.629C93.2303 185.089 93.0088 185.548 92.6397 185.702C92.6397 185.778 92.5659 185.778 92.4183 185.778Z" fill="black"/>
<path d="M284.651 173.827C283.249 173.827 281.846 173.215 280.96 172.065C279.927 170.84 279.631 169.154 280.074 167.546C280.739 165.4 282.215 165.554 283.027 165.707C283.249 165.707 283.47 165.783 283.544 165.707C283.987 164.481 284.43 159.578 284.577 156.59C284.577 156.131 284.873 155.901 285.389 155.824C285.832 155.824 286.127 156.207 286.127 156.667C286.054 157.433 285.611 164.481 285.02 166.243C284.503 167.546 283.396 167.469 282.806 167.316C282.067 167.239 281.846 167.162 281.551 168.082C281.182 169.154 281.403 170.227 282.067 171.07C282.806 171.989 283.987 172.372 285.168 172.219C285.611 172.142 285.98 172.449 286.054 172.908C286.127 173.368 285.832 173.751 285.389 173.827C285.242 173.827 284.946 173.827 284.651 173.827Z" fill="black"/>
</svg>
