<?xml version="1.0" encoding="utf-8"?>
<!-- Generator: Adobe Illustrator 27.5.0, SVG Export Plug-In . SVG Version: 6.00 Build 0)  -->
<svg version="1.1" xmlns="http://www.w3.org/2000/svg" xmlns:xlink="http://www.w3.org/1999/xlink" x="0px" y="0px"
	 viewBox="0 0 500 500" style="enable-background:new 0 0 500 500;" xml:space="preserve">
<g id="Background_Complete">
	<rect x="416.779" y="398.494" style="fill:#EBEBEB;" width="33.122" height="0.25"/>
	<rect x="322.527" y="401.208" style="fill:#EBEBEB;" width="8.693" height="0.25"/>
	<rect x="396.586" y="389.208" style="fill:#EBEBEB;" width="19.192" height="0.25"/>
	<rect x="52.459" y="390.888" style="fill:#EBEBEB;" width="43.193" height="0.25"/>
	<rect x="104.556" y="390.888" style="fill:#EBEBEB;" width="6.333" height="0.25"/>
	<rect x="131.471" y="395.111" style="fill:#EBEBEB;" width="93.676" height="0.25"/>
	<path style="fill:#EBEBEB;" d="M237.014,337.8H43.915c-3.147,0-5.708-2.561-5.708-5.708V60.66c0-3.147,2.561-5.708,5.708-5.708
		h193.099c3.146,0,5.707,2.561,5.707,5.708v271.432C242.721,335.239,240.16,337.8,237.014,337.8z M43.915,55.203
		c-3.01,0-5.458,2.448-5.458,5.458v271.432c0,3.01,2.448,5.458,5.458,5.458h193.099c3.009,0,5.457-2.448,5.457-5.458V60.66
		c0-3.009-2.448-5.458-5.457-5.458H43.915z"/>
	<path style="fill:#EBEBEB;" d="M453.31,337.8H260.212c-3.147,0-5.707-2.561-5.707-5.708V60.66c0-3.147,2.561-5.708,5.707-5.708
		H453.31c3.148,0,5.708,2.561,5.708,5.708v271.432C459.019,335.239,456.458,337.8,453.31,337.8z M260.212,55.203
		c-3.009,0-5.457,2.448-5.457,5.458v271.432c0,3.01,2.448,5.458,5.457,5.458H453.31c3.01,0,5.458-2.448,5.458-5.458V60.66
		c0-3.009-2.448-5.458-5.458-5.458H260.212z"/>
	<rect y="382.398" style="fill:#EBEBEB;" width="500" height="0.25"/>
	<g>
		<g>
			<g>
				<g>
					<rect x="213.142" y="304.044" style="fill:#E6E6E6;" width="74.844" height="69.739"/>
					<rect x="215.494" y="375.974" style="fill:#E0E0E0;" width="9.552" height="6.094"/>
					<rect x="287.986" y="304.044" style="fill:#E6E6E6;" width="151.977" height="69.062"/>
					<rect x="442.013" y="298.906" style="fill:#E6E6E6;" width="9.552" height="83.162"/>
					<rect x="295.394" y="309.54" style="fill:#F5F5F5;" width="65.884" height="60.34"/>
					<polygon style="fill:#FAFAFA;" points="306.518,369.88 324.105,369.88 330.447,309.54 312.86,309.54 					"/>
					<polygon style="fill:#FAFAFA;" points="328.61,369.88 332.111,369.88 338.452,309.54 334.952,309.54 					"/>
					<rect x="220.27" y="309.54" style="fill:#F5F5F5;" width="65.884" height="60.34"/>
					<rect x="371.236" y="309.54" style="fill:#F5F5F5;" width="65.884" height="60.34"/>
					<path style="fill:#F0F0F0;" d="M439.58,298.906h-2.547H290.618h-0.169h-2.378h-2.547h-70.009h-2.547h-2.547v83.162h5.094v-4.66
						h70.009h5.094h146.415v4.66h5.094v-83.162H439.58z M215.515,306.434h70.009v28.884h-70.009V306.434z M215.515,369.88v-30.261
						h70.009v30.261H215.515z M361.279,369.88h-70.66v-63.446h70.66V369.88z M437.033,369.88h-70.66v-30.261h70.66V369.88z
						 M437.033,335.318h-70.66v-28.884h70.66V335.318z"/>
				</g>
				<g>
					<circle style="fill:#EBEBEB;" cx="251.234" cy="316.695" r="3.061"/>
					<path style="fill:#E0E0E0;" d="M251.234,319.756c-1.235,0-2.292-0.735-2.776-1.787c-0.179,0.389-0.285,0.817-0.285,1.273
						c0,1.69,1.37,3.061,3.061,3.061c1.691,0,3.061-1.371,3.061-3.061c0-0.456-0.106-0.885-0.285-1.273
						C253.525,319.021,252.468,319.756,251.234,319.756z"/>
				</g>
				<g>
					<path style="fill:#EBEBEB;" d="M254.294,352.26c0,1.69-1.37,3.061-3.061,3.061c-1.691,0-3.061-1.37-3.061-3.061
						c0-1.691,1.37-3.061,3.061-3.061C252.924,349.199,254.294,350.569,254.294,352.26z"/>
					<path style="fill:#E0E0E0;" d="M251.234,355.321c-1.235,0-2.292-0.735-2.776-1.787c-0.179,0.389-0.285,0.818-0.285,1.274
						c0,1.69,1.37,3.061,3.061,3.061c1.691,0,3.061-1.371,3.061-3.061c0-0.456-0.106-0.885-0.285-1.274
						C253.525,354.586,252.468,355.321,251.234,355.321z"/>
				</g>
				<g>
					<circle style="fill:#EBEBEB;" cx="405.669" cy="316.695" r="3.061"/>
					<path style="fill:#E0E0E0;" d="M405.669,319.756c-1.235,0-2.292-0.735-2.776-1.787c-0.179,0.389-0.285,0.817-0.285,1.273
						c0,1.69,1.37,3.061,3.061,3.061c1.69,0,3.061-1.371,3.061-3.061c0-0.456-0.106-0.885-0.285-1.273
						C407.961,319.021,406.904,319.756,405.669,319.756z"/>
				</g>
				<g>
					<path style="fill:#EBEBEB;" d="M355.06,341.475c0,1.691-1.371,3.061-3.061,3.061c-1.69,0-3.061-1.371-3.061-3.061
						c0-1.69,1.371-3.061,3.061-3.061C353.689,338.414,355.06,339.785,355.06,341.475z"/>
					<path style="fill:#E0E0E0;" d="M351.999,344.536c-1.235,0-2.292-0.735-2.776-1.787c-0.179,0.389-0.285,0.817-0.285,1.273
						c0,1.69,1.371,3.061,3.061,3.061s3.061-1.37,3.061-3.061c0-0.456-0.106-0.885-0.285-1.273
						C354.29,343.802,353.233,344.536,351.999,344.536z"/>
				</g>
				<g>
					<path style="fill:#EBEBEB;" d="M408.73,352.26c0,1.69-1.37,3.061-3.061,3.061c-1.691,0-3.061-1.37-3.061-3.061
						c0-1.691,1.37-3.061,3.061-3.061C407.359,349.199,408.73,350.569,408.73,352.26z"/>
					<path style="fill:#E0E0E0;" d="M405.669,355.321c-1.235,0-2.292-0.735-2.776-1.787c-0.179,0.389-0.285,0.818-0.285,1.274
						c0,1.69,1.37,3.061,3.061,3.061c1.69,0,3.061-1.371,3.061-3.061c0-0.456-0.106-0.885-0.285-1.274
						C407.961,354.586,406.904,355.321,405.669,355.321z"/>
				</g>
			</g>
			<g>
				<rect x="79.035" y="103.669" style="fill:#F5F5F5;" width="63.707" height="82.767"/>
				<rect x="83.936" y="110.036" style="fill:#EBEBEB;" width="53.905" height="70.032"/>
				<rect x="87.309" y="114.418" style="fill:#EBEBEB;" width="47.159" height="61.268"/>
				<polygon style="fill:#FAFAFA;" points="103.964,149.042 87.309,165.697 87.309,175.686 130.607,175.686 				"/>
				<path style="fill:#FFFFFF;" d="M127.988,136.561c0,3.579-2.901,6.48-6.48,6.48c-3.579,0-6.48-2.901-6.48-6.48
					c0-3.579,2.901-6.48,6.48-6.48C125.087,130.082,127.988,132.983,127.988,136.561z"/>
			</g>
			<g>
				<path style="fill:#F0F0F0;" d="M56.489,283.783c0-8.513,10.018-15.722,23.853-18.186l-13.675-16.332h48.312l-13.675,16.332
					c13.835,2.465,23.853,9.673,23.853,18.186c0,9.376-12.149,77.938-28.169,93.041l5.054,6.037H79.604l5.054-6.037
					C68.638,361.722,56.489,293.159,56.489,283.783z"/>
				<path style="fill:#E0E0E0;" d="M109.333,354.083c-5.763-4.185-9.734-12.853-9.734-22.898c0-14.128,7.835-25.581,17.5-25.581
					c1.642,0,3.224,0.354,4.73,0.972C119.06,320.989,114.709,339.354,109.333,354.083z"/>
				<path style="fill:#E6E6E6;" d="M66.964,270.058c6.431,3.782,10.977,12.97,10.977,23.725c0,13.137-6.777,23.947-15.498,25.401
					c-3.756-16.727-5.954-31.414-5.954-35.401C56.489,278.394,60.507,273.53,66.964,270.058z"/>
			</g>
		</g>
		<g>
			<g>
				<path style="fill:#E0E0E0;" d="M397.156,294.638h-0.003v-84.93h0.003c0.719,0,1.302,0.583,1.302,1.302v82.326
					C398.459,294.055,397.875,294.638,397.156,294.638z"/>
				<rect x="254.897" y="209.708" style="fill:#EBEBEB;" width="142.256" height="84.93"/>
				<rect x="257.238" y="212.049" style="fill:#E0E0E0;" width="137.573" height="80.247"/>
				<g>
					<polygon style="opacity:0.1;fill:#FAFAFA;" points="311.61,292.296 332.392,292.296 345.102,212.049 324.32,212.049 					"/>
					<polygon style="opacity:0.2;fill:#FAFAFA;" points="336.088,292.296 340.747,292.296 353.457,212.049 348.798,212.049 					"/>
				</g>
			</g>
			<g>
				<path style="fill:#E0E0E0;" d="M344.051,294.638v3.042h4.228c1.041,0,1.885-0.844,1.885-1.885v-1.157H344.051z"/>
				<g>
					<path style="fill:#F0F0F0;" d="M344.467,297.68h-38.234c-1.68,0-3.042-1.362-3.042-3.042l0,0h44.318l0,0
						C347.509,296.318,346.147,297.68,344.467,297.68z"/>
				</g>
			</g>
		</g>
	</g>
</g>
<g id="Background_Simple" style="display:none;">
	<g style="display:inline;">
		<g>
			<path style="fill:#407BFF;" d="M369.848,160.123c-8.512-61.311-71.659-99.545-129.582-77.72
				c-5.838,2.2-11.518,4.785-16.974,7.742c-42.7,23.139-72.461,65.742-88.399,111.619c-5.664,16.305-10.243,33.942-22.555,46.039
				c-9.867,9.695-23.515,14.555-34.243,23.287c-12.235,9.958-20.217,25.067-21.218,40.811c-1.001,15.743,5.093,31.867,16.485,42.778
				c19.708,18.877,50.646,19.766,77.331,14.051c26.685-5.714,52.421-16.841,79.685-18.037c30.317-1.329,59.601,9.706,89.231,16.259
				c29.63,6.552,63.253,7.854,87.603-10.256c16.609-12.353,26.501-32.637,28.07-53.277c1.569-20.64-4.718-41.455-15.681-59.013
				c-7.771-12.445-17.759-23.317-27.32-34.485C380.196,195.807,372.404,178.528,369.848,160.123L369.848,160.123z"/>
		</g>
		<g style="opacity:0.9;">
			<path style="fill:#FFFFFF;" d="M369.848,160.123c-8.512-61.311-71.659-99.545-129.582-77.72
				c-5.838,2.2-11.518,4.785-16.974,7.742c-42.7,23.139-72.461,65.742-88.399,111.619c-5.664,16.305-10.243,33.942-22.555,46.039
				c-9.867,9.695-23.515,14.555-34.243,23.287c-12.235,9.958-20.217,25.067-21.218,40.811c-1.001,15.743,5.093,31.867,16.485,42.778
				c19.708,18.877,50.646,19.766,77.331,14.051c26.685-5.714,52.421-16.841,79.685-18.037c30.317-1.329,59.601,9.706,89.231,16.259
				c29.63,6.552,63.253,7.854,87.603-10.256c16.609-12.353,26.501-32.637,28.07-53.277c1.569-20.64-4.718-41.455-15.681-59.013
				c-7.771-12.445-17.759-23.317-27.32-34.485C380.196,195.807,372.404,178.528,369.848,160.123L369.848,160.123z"/>
		</g>
	</g>
</g>
<g id="Shadow">
	<ellipse id="_x3C_Path_x3E__359_" style="fill:#F5F5F5;" cx="250" cy="415.693" rx="193.889" ry="11.323"/>
</g>
<g id="Character_2">
	<g>
		<g>
			<g>
				<g>
					<polygon style="fill:#B55B52;" points="356.009,403.876 355.787,410.343 349.524,410.866 349.242,403.785 					"/>
					<g>
						<path style="fill:#407BFF;" d="M345.947,411.56c-0.902,0.024-1.838-0.117-2.147-0.497c-0.16-0.223-0.163-0.522-0.006-0.748
							c0.116-0.203,0.306-0.352,0.531-0.416c1.203-0.365,3.771,1.015,3.884,1.076c0.064,0.035,0.099,0.105,0.088,0.177
							c-0.012,0.071-0.065,0.128-0.135,0.145C347.432,411.449,346.692,411.537,345.947,411.56z M344.757,410.179
							c-0.111,0.001-0.221,0.018-0.328,0.051c-0.142,0.028-0.264,0.12-0.331,0.249c-0.122,0.217-0.074,0.319-0.024,0.377
							c0.349,0.463,2.179,0.427,3.525,0.225C346.717,410.603,345.752,410.297,344.757,410.179z"/>
						<path style="fill:#407BFF;" d="M348.134,411.295c-0.024,0.008-0.049,0.006-0.072-0.005c-0.877-0.362-2.662-1.89-2.528-2.709
							c0.013-0.197,0.154-0.44,0.626-0.5c0.345-0.046,0.693,0.052,0.964,0.269c0.944,0.735,1.188,2.687,1.201,2.778
							c0.006,0.062-0.022,0.122-0.073,0.158C348.215,411.302,348.173,411.306,348.134,411.295z M346.284,408.403l-0.099-0.006
							c-0.308,0.034-0.325,0.159-0.337,0.204c-0.031,0.493,1.144,1.694,2.057,2.202c-0.107-0.82-0.464-1.588-1.021-2.199
							C346.714,408.466,346.501,408.395,346.284,408.403L346.284,408.403z"/>
						<path style="fill:#263238;" d="M348.875,410.261l7.919-0.206c0.298-0.008,0.563,0.192,0.635,0.482l1.6,6.405
							c0.146,0.567-0.195,1.145-0.763,1.291c-0.073,0.019-0.147,0.03-0.222,0.033c-2.856,0.025-5.399-0.065-8.953,0.033
							c-4.194,0.111-3.117,0.585-8.046,0.784c-2.97,0.117-3.602-3.246-2.346-3.445c5.747-0.876,6.3-2.633,8.47-4.754
							C347.643,410.473,348.25,410.252,348.875,410.261z"/>
					</g>
				</g>
				<polygon style="fill:#B55B52;" points="314.238,399.353 311.961,411.16 305.513,409.002 307.667,397.731 				"/>
				<g>
					<path style="fill:#407BFF;" d="M301.615,407.425c-0.862-0.265-1.705-0.696-1.878-1.154c-0.081-0.262,0.012-0.547,0.232-0.711
						c0.174-0.155,0.402-0.236,0.636-0.226c1.256,0.037,3.253,2.162,3.34,2.256c0.049,0.053,0.06,0.131,0.027,0.195
						c-0.034,0.063-0.103,0.1-0.174,0.094C303.059,407.792,302.328,407.64,301.615,407.425z M300.926,405.737
						c-0.106-0.034-0.216-0.053-0.327-0.056c-0.144-0.019-0.289,0.03-0.393,0.131c-0.185,0.167-0.172,0.279-0.142,0.349
						c0.183,0.55,1.93,1.098,3.27,1.334C302.649,406.763,301.832,406.166,300.926,405.737z"/>
					<path style="fill:#407BFF;" d="M303.773,407.869c-0.025,0-0.049-0.01-0.067-0.027c-0.716-0.622-1.922-2.638-1.535-3.373
						c0.075-0.183,0.286-0.368,0.753-0.275c0.341,0.066,0.641,0.269,0.829,0.561c0.661,0.997,0.272,2.926,0.255,3.016
						c-0.014,0.061-0.059,0.109-0.119,0.126C303.848,407.902,303.807,407.892,303.773,407.869z M302.939,404.539l-0.092-0.037
						c-0.303-0.066-0.359,0.047-0.384,0.086c-0.187,0.458,0.545,1.97,1.249,2.742c0.159-0.812,0.065-1.653-0.269-2.41
						C303.327,404.736,303.147,404.601,302.939,404.539L302.939,404.539z"/>
					<path style="fill:#263238;" d="M304.805,407.125l7.573,2.323c0.286,0.088,0.472,0.361,0.449,0.659l-0.521,6.581
						c-0.042,0.584-0.55,1.024-1.134,0.982c-0.075-0.005-0.149-0.019-0.221-0.04c-2.715-0.885-5.097-1.779-8.498-2.817
						c-4.012-1.229-3.141-0.437-7.877-1.816c-2.853-0.834-2.382-4.223-1.129-4.013c5.727,0.997,6.81-0.492,9.543-1.813
						C303.569,406.934,304.215,406.918,304.805,407.125z"/>
				</g>
				<polygon style="opacity:0.2;" points="312.879,406.644 313.371,403.847 306.837,402.074 306.304,404.865 				"/>
				<polygon style="opacity:0.2;" points="355.929,407.264 356.009,403.28 349.284,403.381 349.338,407.264 				"/>
				<g>
					<polygon style="fill:#263238;" points="359.894,272.372 329.679,266.388 325.138,286.119 313.217,337.91 303.247,402.342 
						314.466,404.896 329.288,340.586 344.312,292.032 360.528,293.137 					"/>
					<polygon style="fill:#407BFF;" points="303.247,398.809 316.117,401.693 314.733,405.405 302.433,402.281 					"/>
				</g>
				<g>
					<path style="fill:#263238;" d="M356.864,339.644l4.579-47.151c0.418-5.624,0.662-11.15-0.266-16.713l-0.503-0.127l-7.25-0.947
						l-11.025,2.748l-2.167,61.447c-0.017,0.496-0.006,0.992,0.034,1.486l5.173,64.196l12.528-0.629L356.864,339.644z"/>
				</g>
				<polygon style="opacity:0.3;" points="341.943,299.642 339.945,290.099 339.529,307.485 				"/>
				<g>
					<g>
						<path style="fill:#B55B52;" d="M331.072,229.192l-11.201,14.383c0,0-1.146,8.671,1.31,18.056c0,0,4.125,3.003,4.002,5.102
							c-0.123,2.099,1.351,7.043,1.351,7.043l-3.296,1.686l-3.643-0.69l-1.444-5.116l-0.662-6.136c0,0-8.985-17.828-3.99-25.226
							c4.51-6.681,11.451-14.666,11.451-14.666L331.072,229.192z"/>
					</g>
					<path style="fill:#407BFF;" d="M334.368,222.179c0,0,0.262,5.787-9.777,16.757l-9.54-7.624l4.89-5.832
						c2.768-3.301,6.726-5.378,11.015-5.781l0,0L334.368,222.179z"/>
					<path style="opacity:0.2;" d="M331.563,229.757l0.842-1.527c-2.371,1.588-8.856,7.604-9.494,8.829l1.927,1.605
						C325.25,238.011,327.203,236.697,331.563,229.757z"/>
					<g>
						<polygon style="fill:#407BFF;" points="323.744,241.225 325.322,239.068 315.178,230.615 313.529,232.472 						"/>
						<polygon style="opacity:0.5;fill:#FFFFFF;" points="323.744,241.225 325.322,239.068 315.178,230.615 313.529,232.472 						
							"/>
					</g>
				</g>
				<path style="fill:#407BFF;" d="M360.033,255.445c0.484-8.462,2.207-32.895,2.207-32.895s-2.568-1.397-7.154-2.56
					c-2.883,1.516-9.324,4.768-11.501,4.761c-1.946-0.006-3.281-3.825-3.929-6.226c-2.854,0.139-5.924,0.498-9.195,1.175l0,0
					c-1.675,6.019-2.605,12.22-2.753,18.466c-0.201,8.513-0.309,21.621,0.33,35.352c0,0,6.507,4.773,21.808,4.306
					c6.044-0.185,11.331-2.044,11.331-2.044S359.729,260.747,360.033,255.445z"/>
				<g>
					<path style="fill:#B55B52;" d="M370.375,230.372l6.859,5.965c0,0,5.963-8.605,10.459-14.271c0,0-1.106-3.797,0.945-6.123
						l1.024-3.533l3.224-0.983l4.42,5.736l-5.44,7.17c0,0-9.556,20.665-12.935,21.193c-3.38,0.528-13.068-8.355-13.068-8.355
						L370.375,230.372z"/>
					<path style="fill:#407BFF;" d="M357.484,221.05c0,0,4.594-0.289,15.894,9.378l-7.301,9.789l-7.139-4.91l-4.519-10.089
						L357.484,221.05z"/>
					<g>
						<polygon style="fill:#407BFF;" points="375.695,231.199 373.486,229.694 365.377,240.115 367.288,241.701 						"/>
						<polygon style="opacity:0.5;fill:#FFFFFF;" points="375.695,231.199 373.486,229.694 365.377,240.115 367.288,241.701 						
							"/>
					</g>
					<path style="opacity:0.2;" d="M361.669,230.718c-0.131,1.895-0.276,4-0.425,6.176l2.539,1.746
						C363.586,235.796,362.42,232.554,361.669,230.718z"/>
				</g>
				<path style="fill:#B55B52;" d="M352.602,219.431c-2.136-2.34-0.438-11.782-0.438-11.782l-7.248,2.91c0,0-0.569,6.524-2.366,7.9
					c-0.706,0.54-1.803,0.017-2.74,0.06l2.127,6.123l4.841,0.327l8.709-4.873C354.601,219.862,353.317,220.214,352.602,219.431z"/>
				<path style="opacity:0.1;" d="M344.157,215.076c5.049-0.815,7.053-4.075,7.829-6.305c0.1-0.694,0.177-1.123,0.177-1.123
					l-7.248,2.91C344.915,210.558,344.708,212.902,344.157,215.076z"/>
				<g>
					<g>
						<polygon style="fill:#407BFF;" points="340.678,218.038 344.037,224.89 338.768,228.176 338.324,218.16 						"/>
						<polygon style="opacity:0.5;fill:#FFFFFF;" points="340.678,218.038 344.037,224.89 338.768,228.176 338.324,218.16 						"/>
					</g>
					<g>
						<polygon style="fill:#407BFF;" points="354.734,219.283 343.118,224.618 347.323,229.803 356.864,220.168 						"/>
						<polygon style="opacity:0.5;fill:#FFFFFF;" points="354.734,219.283 343.118,224.618 347.323,229.803 356.864,220.168 						
							"/>
					</g>
				</g>
				<g>
					<g>
						<path style="fill:#263238;" d="M340.35,187.402c-0.714-1.507-0.339-3.458,0.884-4.593c1.223-1.135,3.196-1.363,4.646-0.538
							c2.979-1.918,7.611-2.271,10.81-0.745c3.198,1.526,5.505,4.78,5.887,8.303c1.853,1.703,3.845,3.982,4.448,6.425
							c0.305,1.238,0.415,2.59-0.108,3.752c-0.523,1.163-1.834,2.04-3.069,1.722c-0.212,0.963-0.602,1.85-1.207,2.629
							c-0.709,0.913-1.827,1.39-2.895,1.831c-2.753,1.135-5.506,2.271-8.26,3.406c0.175,0.007,0.35,0.015,0.525,0.022
							c-4.2,0.027-8.298-2.817-10.535-6.373c-2.236-3.556-3.003-7.859-3.07-12.059C338.381,189.651,338.865,187.78,340.35,187.402z"
							/>
						<path style="fill:#B55B52;" d="M357.626,199.106c-2.391,6.354-3.271,9.084-7.563,11.393
							c-6.46,3.481-13.736-0.855-13.293-7.787c0.411-6.245,4.268-15.615,11.393-16.195c5.09-0.467,9.594,3.281,10.061,8.371
							C358.355,196.321,358.15,197.766,357.626,199.106z"/>
						<path style="fill:#263238;" d="M346.788,197.615c-0.168,0.525-0.579,0.867-0.92,0.766c-0.341-0.101-0.493-0.625-0.335-1.151
							c0.158-0.526,0.579-0.867,0.92-0.766C346.794,196.566,346.915,197.107,346.788,197.615z"/>
						<path style="fill:#263238;" d="M340.833,195.791c-0.169,0.535-0.579,0.867-0.92,0.766c-0.341-0.101-0.493-0.625-0.335-1.151
							s0.579-0.867,0.919-0.756C340.837,194.761,340.991,195.265,340.833,195.791z"/>
						<path style="fill:#842828;" d="M342.375,197.312c-0.844,1.057-1.828,1.993-2.925,2.784c0.429,0.553,1.077,0.893,1.776,0.932
							L342.375,197.312z"/>
						<path style="fill:#263238;" d="M349.551,197.158c-0.141-0.017-0.253-0.125-0.276-0.265c-0.313-1.019-1.038-1.861-1.999-2.323
							c-0.164-0.076-0.235-0.27-0.16-0.435c0.074-0.16,0.263-0.23,0.423-0.156c0.004,0.002,0.007,0.004,0.011,0.005
							c1.159,0.547,2.022,1.572,2.364,2.807c0.028,0.174-0.09,0.338-0.263,0.366h0C349.619,197.167,349.584,197.167,349.551,197.158
							z"/>
						<path style="fill:#263238;" d="M339.894,192.494c-0.117-0.018-0.216-0.095-0.261-0.204c-0.066-0.166,0.014-0.355,0.179-0.424
							c0.966-0.434,2.084-0.358,2.982,0.202c0.144,0.092,0.186,0.283,0.094,0.426c-0.005,0.007-0.009,0.014-0.014,0.021
							c-0.1,0.145-0.298,0.182-0.443,0.082c-0.001-0.001-0.003-0.002-0.004-0.003l0,0c-0.715-0.412-1.584-0.458-2.34-0.124
							C340.026,192.499,339.959,192.507,339.894,192.494z"/>
						<g>
							<path style="fill:#263238;" d="M340.733,203.303c0,0,3.04,0.673,5.239-0.16c0,0-0.06,3.416-4.359,2.846
								c-0.202-0.027-0.802-0.143-0.802-0.143S341.131,204.854,340.733,203.303z"/>
							<path style="fill:#FFFFFF;" d="M341.439,203.424l0.024,0.782c0,0,1.987,0.697,4.278-0.05
								c0.221-0.553,0.232-1.013,0.232-1.013C344.426,203.729,342.467,203.57,341.439,203.424z"/>
							<path style="fill:#C13B37;" d="M345.273,204.941c-0.341-0.045-0.714-0.065-1.105-0.053c-1.454,0.044-2.628,0.507-2.788,1.063
								c0.094,0.016,0.178,0.03,0.233,0.038C343.611,206.254,344.687,205.656,345.273,204.941z"/>
						</g>
					</g>
					<path style="fill:#B55B52;" d="M357.851,204.628c-0.764,1.033-1.906,1.723-3.176,1.921c-1.692,0.235-2.319-1.332-1.663-2.823
						c0.602-1.335,2.201-3.07,3.814-2.653c1.161,0.341,1.827,1.558,1.487,2.72C358.222,204.102,358.065,204.387,357.851,204.628z"/>
				</g>
				<g>
					<path style="fill:#263238;" d="M354.619,185.547c1.389-0.033,2.654,0.951,3.305,2.179c0.651,1.228,2.725,4.429,2.732,5.818
						c0.019,3.748,0.174,5.678-4.907,9.108c0.708-1.648,0.98-3.791,0.125-5.368c-0.896-0.361-1.844-0.293-2.342-1.121
						c-0.498-0.828-0.38-3.011,0.572-3.177c-1.683-0.075-3.117-1.597-3.771-3.15c-1.442,0.608-3.45-0.006-4.686-0.966
						c-0.96,1.235-2.761,1.592-4.258,1.137c0.966-2.285,2.883-4.676,5.204-5.55c2.321-0.874,4.999-0.754,7.232,0.326
						L354.619,185.547z"/>
				</g>
			</g>
		</g>
		<path style="fill:#B55B52;" d="M395.264,207.779c0,0,0.899-1.215,1.356-0.15c0.241,0.561-3.721,6.967-3.721,6.967l-1.655-0.884
			L395.264,207.779z"/>
		<polygon style="fill:#407BFF;" points="344.333,400.013 358.418,399.242 358.259,403.935 344.691,404.251 		"/>
	</g>
</g>
<g id="Character_1">
	<g>
		<g>
			<g>
				<g id="freepik--Character--inject-282">
					<path style="fill:#DF5753;" d="M212.784,179.804c0.587,1.472,1.328,2.878,2.211,4.195c-0.378,0.548-1.033,0.836-1.693,0.744
						L212.784,179.804z"/>
					<path style="fill:#263238;" d="M212.654,177.551c0.456-0.048,0.883,0.483,0.955,1.175c0.073,0.692-0.236,1.299-0.691,1.347
						c-0.456,0.048-0.882-0.474-0.956-1.175C211.889,178.197,212.198,177.598,212.654,177.551z"/>
					<path style="fill:#E58A7B;" d="M192.214,190.097c1.533,4.992,3.511,14.241,0.287,18.032c0,0,1.953,5.028,11.437,4.034
						c10.431-1.093,4.432-5.697,4.432-5.697c-5.836-0.77-6.129-5.007-5.547-9.079L192.214,190.097z"/>
					<path style="fill:#B55B52;" d="M188.22,178.757c1.418,8.466,1.842,12.088,6.6,16.007c7.171,5.907,17.261,2.317,18.406-6.356
						c1.027-7.864-0.207-18.873-8.935-21.385c-6.204-1.829-13.941,0.213-15.77,6.416
						C188.014,175.166,187.911,176.985,188.22,178.757z"/>
					<path style="fill:#407BFF;" d="M189.55,209.023L189.55,209.023c-0.257-1.03,0.35-2.078,1.372-2.366
						c3.787-1.035,12.427-3.25,16.905-3.1c3.333,0.12,4.391,1.939,4.696,3.492c0.197,1.047-0.489,2.056-1.534,2.259l-0.306,0.032
						l-19.158,1.122C190.61,210.504,189.79,209.906,189.55,209.023z"/>
					<path style="opacity:0.6;enable-background:new    ;" d="M189.55,209.023L189.55,209.023c-0.257-1.03,0.35-2.078,1.372-2.366
						c3.787-1.035,12.427-3.25,16.905-3.1c3.333,0.12,4.391,1.939,4.696,3.492c0.197,1.047-0.489,2.056-1.534,2.259l-0.306,0.032
						l-19.158,1.122C190.61,210.504,189.79,209.906,189.55,209.023z"/>
					<path style="fill:#B55B52;" d="M184.671,218.012l-5.538,16.029l12.844,17.115l-5.028,3.352c0,0-14.572-11.684-18.055-18.417
						c-0.786-1.519,9.027-23.91,9.027-23.91L184.671,218.012z"/>
					<path style="fill:#407BFF;" d="M182.309,230.115l-13.414-6.756c0,0,6.584-15.255,11.075-16.9
						C195.492,202.546,182.309,230.115,182.309,230.115z"/>
					<path style="fill:#B55B52;" d="M191.977,251.156l6.439,3.668c0,0,2.395,6.338,1.134,6.872c-1.262,0.534-5.896,2.11-5.896,2.11
						s-2.779-3.844-4.02-4.758c-1.241-0.914-2.685-4.541-2.685-4.541L191.977,251.156z"/>
					<path style="fill:#407BFF;" d="M223.148,207.14c0,0-1.941,9.698,1.326,52.357l-34.088-0.122
						c-0.906-14.311-2.656-19.305-12.516-47.747c4.786-1.519,9.677-2.688,14.632-3.499c5.242-0.939,10.546-1.495,15.869-1.663
						C215.259,206.373,223.148,207.14,223.148,207.14z"/>
					<path style="fill:#B55B52;" d="M233.686,186.522c0,0,0.025-1.394,0.939-0.838c0.481,0.293,0.933,7.227,0.933,7.227
						l-1.716,0.221L233.686,186.522z"/>
					<path style="fill:#B55B52;" d="M227.001,213.295l4.967,8.241c0,0,2.25-9.989,2.708-19.033c0,0-1.019-2.394-2.273-6.022
						l0.277-4.314c0.062-0.958,0.976-1.626,1.908-1.393l5.05,1.262c0.761,0.19,1.256,0.922,1.151,1.699l-1.18,8.688
						c0,0,2.159,29.306-4.071,30.555c-6.634,1.33-14.566-15.472-14.566-15.472L227.001,213.295z"/>
					<path style="opacity:0.2;enable-background:new    ;" d="M222.675,226.797l-7.05-12.302l2.684,12.011
						C220.008,231.359,222.75,229.456,222.675,226.797z"/>
					<path style="fill:#407BFF;" d="M228.27,210.552c3.301,6.954,4.284,8.133,4.284,8.133l-9.879,8.113
						c0,0-11.928-16.666-10.767-21.304C212.621,202.665,220.448,196.763,228.27,210.552z"/>
					<path style="fill:#263238;" d="M210.477,171.98c0.413,2.507,0.119,5.08-0.851,7.429c-1.602,3.55-1.312,10.125,1.079,13.168
						c1.931,2.454,5.25,3.293,7.498,5.474c2.247,2.182,3.578,5.336,2.225,8.471c-1.205,2.782-6.595,2.169-8.112,4.754
						c-2.059,3.501-1.088,10.359-5.837,10.414c-6.761,0.124-8.371-5.861-13.056-4.776c-4.685,1.084-11.815,2.841-13.679-4.393
						c-1.156-4.439,1.95-7.58,2.398-11.762c0.328-2.956-1.702-5.338-2.141-8.178c-0.464-2.962,0.278-5.986,2.059-8.397
						c1.286-1.755,2.976-3.03,3.662-5.192c0.546-1.713,0.892-3.484,1.41-5.212c1.087-3.655,3.561-6.571,7.591-7.489
						C205.908,163.782,209.396,167.498,210.477,171.98z"/>
					<path style="fill:#B55B52;" d="M206.71,181.654c0.17,1.621,0.801,3.159,1.819,4.431c1.34,1.631,2.646,0.829,2.79-1.089
						c0.133-1.687-0.41-4.588-2.01-5.58C207.708,178.424,206.521,179.691,206.71,181.654z"/>
					<path style="fill:#263238;" d="M215.329,169.251c0.666,1.441,0.188,3.424-1.245,4.108c0.219,2.973-2.75,5.746-5.701,5.325
						c1.309-0.652,1.329-2.604,0.575-3.857c-1.386-2.305-5.589-4.643-2.535-7.382C208.753,165.356,214.05,166.483,215.329,169.251z"
						/>
				</g>
				<path style="fill:#263238;" d="M213.904,176.656c-0.846-0.245-1.758-0.067-2.449,0.479l0,0
					c-0.023,0.031-0.051,0.058-0.083,0.079c-0.16,0.108-0.377,0.067-0.485-0.093c-0.108-0.159-0.067-0.376,0.093-0.485
					c0.845-0.708,1.981-0.963,3.048-0.684c0.081,0.02,0.151,0.069,0.199,0.137c0.111,0.158,0.074,0.376-0.084,0.487
					C214.077,176.633,213.991,176.662,213.904,176.656z"/>
			</g>
			<g>
				<path style="fill:#263238;" d="M190.386,259.375c0,0-6.464,9.099-12.373,40.212c-7.794,32.871-26.599,100.033-26.599,100.033
					l13.31,2.924c0,0,27.446-78.173,34.655-101.737c6.594-21.517,17.052-41.432,17.052-41.432H190.386z"/>
				<path style="fill:#263238;" d="M204.199,259.375c0,0,1.701,55.18,1.137,80.811c-2.519,24.618-1.838,53.711-1.229,62.893h12.785
					c0,0,8.985-82.365,11.587-106.272c2.511-22.979-4.005-37.31-4.005-37.31L204.199,259.375z"/>
			</g>
			<path style="opacity:0.3;enable-background:new    ;" d="M212.711,286.793L212.711,286.793c-0.74-0.171-4.497-1.231-8.407-6.607
				c-1.111-1.527-3.636-6.622-3.636-6.622s0.881,5.6,2.392,9.155C204.652,286.464,210.447,289.493,212.711,286.793L212.711,286.793z
				"/>
		</g>
		<g>
			<g>
				<path style="fill:#407BFF;" d="M213.968,413.485c-0.076-0.013-0.133-0.075-0.141-0.151c-0.014-0.072,0.018-0.144,0.081-0.182
					c0.141-0.06,2.783-1.563,4.033-1.22c0.242,0.049,0.452,0.199,0.575,0.414c0.167,0.232,0.167,0.544,0,0.776
					c-0.313,0.444-1.21,0.575-2.218,0.575C215.516,413.693,214.737,413.622,213.968,413.485z M217.497,412.214
					c-1.042,0.127-2.049,0.455-2.964,0.968c1.402,0.192,3.307,0.181,3.66-0.302c0.081-0.071,0.121-0.171,0-0.393
					c-0.072-0.134-0.203-0.227-0.353-0.252c-0.114-0.016-0.229-0.016-0.343,0V412.214z"/>
				<path style="fill:#407BFF;" d="M213.898,413.444c-0.05-0.039-0.079-0.098-0.081-0.161c0.01-0.091,0.171-2.117,1.18-2.914
					c0.279-0.236,0.645-0.346,1.008-0.303c0.494,0.051,0.665,0.303,0.665,0.504c0.141,0.877-1.664,2.48-2.581,2.894h-0.071
					C213.977,413.473,213.934,413.466,213.898,413.444z M215.884,410.409c-0.237,0.003-0.465,0.097-0.635,0.262
					c-0.565,0.656-0.917,1.469-1.008,2.329c0.938-0.564,2.158-1.845,2.077-2.359c-0.01-0.04-0.03-0.202-0.353-0.202h-0.101
					L215.884,410.409z"/>
				<polygon style="fill:#B55B52;" points="206.477,399.798 214.019,398.801 213.262,413.283 205.72,413.283 				"/>
				<path style="fill:#263238;" d="M215.037,413c5.102,3.146,6.675,3.287,12.584,4.578c1.29,0.283,0.433,3.418-2.662,3.418
					c-5.122,0-5.657-0.242-10.023-0.242c-3.741,0-8.036,0.172-11.011,0.222c-0.092,0.001-0.183-0.008-0.272-0.03
					c-0.585-0.139-0.947-0.727-0.807-1.312l1.482-6.705c0.07-0.3,0.337-0.513,0.645-0.514h8.248
					C213.87,412.439,214.498,412.641,215.037,413z"/>
				<polygon style="opacity:0.2;enable-background:new    ;" points="206.467,399.808 206.083,405.698 213.635,405.698 
					214.019,399.808 				"/>
			</g>
			<path style="fill:#407BFF;" d="M202.221,398.562l0.424,4.729h15.548c0,0,0.776-5.304,0.716-5.304L202.221,398.562z"/>
			<g>
				<path style="fill:#407BFF;" d="M151.04,413.394c-0.012,0.072-0.069,0.129-0.141,0.141c-0.074,0.016-0.15-0.022-0.182-0.091
					c-0.071-0.131-1.553-2.783-1.2-4.033c0.059-0.235,0.207-0.438,0.413-0.565c0.235-0.168,0.551-0.168,0.786,0
					c0.434,0.323,0.555,1.22,0.555,2.228C151.262,411.853,151.185,412.629,151.04,413.394z M149.81,409.865
					c0.114,1.038,0.425,2.044,0.918,2.964c0.212-1.401,0.212-3.307-0.272-3.66c-0.061-0.081-0.171-0.121-0.393,0
					c-0.134,0.072-0.227,0.203-0.252,0.353C149.793,409.636,149.793,409.751,149.81,409.865L149.81,409.865z"/>
				<path style="fill:#407BFF;" d="M151.03,413.464c-0.035,0.054-0.098,0.081-0.161,0.071c-0.081-0.01-2.117-0.182-2.894-1.19
					c-0.24-0.278-0.349-0.645-0.303-1.008c0.05-0.484,0.303-0.656,0.504-0.656c0.857-0.131,2.47,1.684,2.873,2.591
					c0.004,0.023,0.004,0.047,0,0.071C151.061,413.385,151.054,413.429,151.03,413.464z M147.995,411.488
					c0.01,0.231,0.099,0.452,0.252,0.625c0.652,0.564,1.462,0.916,2.319,1.008c-0.555-0.938-1.825-2.168-2.339-2.087
					c-0.04,0-0.202,0.02-0.202,0.343c0,0.04,0,0.111,0,0.111H147.995z"/>
				<g>
					<polygon style="fill:#B55B52;" points="154.337,398.908 161.692,399.466 158.3,413.918 150.929,413.394 					"/>
					<polygon style="opacity:0.2;enable-background:new    ;" points="154.427,398.504 152.936,404.864 160.297,405.388 
						161.797,399.013 					"/>
				</g>
				<path style="fill:#263238;" d="M149.155,412.426c-1.986,2.349-3.035,3.559-8.802,5.374c-1.271,0.393-0.131,3.438,2.954,3.166
					c5.102-0.454,2.289-0.443,6.635-0.827c3.721-0.333,8.016-0.534,10.98-0.746c0.1-0.004,0.199-0.021,0.295-0.051
					c0.578-0.184,0.898-0.802,0.714-1.381l-2.077-6.554c-0.09-0.296-0.378-0.486-0.686-0.454l-8.208,0.726
					C150.283,411.678,149.633,411.947,149.155,412.426z"/>
				<path style="fill:#407BFF;" d="M149.82,397.15l-0.071,4.759l16.002,1.714c0,0,1.371-5.193,1.311-5.193L149.82,397.15z"/>
			</g>
		</g>
	</g>
</g>
<g id="Lamp_1">
	<g>
		<g>
			<g>
				<g>
					<g>
						<g>
							<g>
								<polygon style="fill:#407BFF;" points="87.058,194.18 82.634,194.151 81.416,192.586 88.297,192.631 								"/>
								<polygon style="opacity:0.5;fill:#FFFFFF;" points="87.058,194.18 82.634,194.151 81.416,192.586 88.297,192.631 								
									"/>
							</g>
							<g>
								<g>
									<g>
										<path style="fill:#407BFF;" d="M94.64,174.294c-0.029,2.772-1.299,5.259-3.293,6.957
											c-1.374,1.167-2.224,2.801-2.236,4.574l-0.005,0.712l-8.442-0.055l0.005-0.712c0.012-1.769-0.815-3.418-2.167-4.598
											c-1.98-1.729-3.22-4.242-3.201-7.033c0.037-5.344,4.672-9.611,10.242-9.297C90.635,165.129,94.684,169.347,94.64,174.294z
											"/>
										<path style="opacity:0.5;fill:#FFFFFF;" d="M94.64,174.294c-0.029,2.772-1.299,5.259-3.293,6.957
											c-1.374,1.167-2.224,2.801-2.236,4.574l-0.005,0.712l-8.442-0.055l0.005-0.712c0.012-1.769-0.815-3.418-2.167-4.598
											c-1.98-1.729-3.22-4.242-3.201-7.033c0.037-5.344,4.672-9.611,10.242-9.297C90.635,165.129,94.684,169.347,94.64,174.294z
											"/>
										<g>
											<g>
												<path style="fill:#407BFF;" d="M83.544,186.526l-1.556-7.648c-0.025-0.125,0.059-0.246,0.188-0.271l0,0
													c0.129-0.025,0.254,0.057,0.279,0.182l1.556,7.648L83.544,186.526z"/>
											</g>
											<g>
												<path style="fill:#407BFF;" d="M86.279,186.554l-0.466-0.095l1.662-7.627c0.027-0.125,0.153-0.204,0.282-0.178l0,0
													c0.129,0.026,0.211,0.149,0.184,0.273L86.279,186.554z"/>
											</g>
											<g>
												<polygon style="fill:#407BFF;" points="85.899,182.058 84.955,180.376 83.986,182.045 82.207,180.033 82.568,179.733 
													83.905,181.245 84.961,179.424 85.992,181.258 87.349,179.764 87.706,180.069 												"/>
											</g>
										</g>
										<g>
											<path style="fill:#407BFF;" d="M89.797,187.726c-0.005,0.574-0.488,1.035-1.078,1.032l-1.09-0.005
												c-0.077,0.018-0.16,0.028-0.244,0.028l-6.3-0.031c-0.593-0.003-1.07-0.471-1.067-1.045
												c0.005-0.566,0.473-1.022,1.054-1.032l0.024,0l1.09,0.005c0.07-0.016,0.145-0.026,0.22-0.027l0.024,0l6.3,0.031
												C89.323,186.683,89.8,187.152,89.797,187.726z"/>
											<path style="fill:#407BFF;" d="M89.409,189.722c-0.004,0.574-0.453,1.035-1.002,1.031l-1.014-0.006
												c-0.071,0.018-0.149,0.028-0.227,0.027l-5.859-0.038c-0.551-0.004-0.996-0.472-0.993-1.046
												c0.004-0.566,0.438-1.021,0.979-1.031l0.022,0l1.014,0.006c0.065-0.016,0.135-0.026,0.204-0.027l0.023,0l5.858,0.038
												C88.966,188.679,89.411,189.148,89.409,189.722z"/>
											<path style="fill:#407BFF;" d="M89.021,191.719c-0.003,0.574-0.417,1.034-0.925,1.03l-0.938-0.008
												c-0.066,0.018-0.138,0.028-0.21,0.027l-5.417-0.046c-0.509-0.004-0.921-0.473-0.92-1.048
												c0.003-0.566,0.404-1.021,0.904-1.029l0.021,0l0.938,0.008c0.06-0.016,0.125-0.025,0.189-0.027l0.021,0l5.417,0.046
												C88.61,190.675,89.022,191.145,89.021,191.719z"/>
										</g>
										<g>
											<polygon style="fill:#407BFF;" points="81.222,193.279 81.223,192.714 88.457,192.747 88.457,193.312 											"/>
										</g>
										<g>
											<rect x="80.663" y="186.206" style="fill:#407BFF;" width="8.445" height="0.565"/>
										</g>
									</g>
								</g>
							</g>
						</g>
						<g style="opacity:0.4;">
							<path style="fill:#FFFFFF;" d="M76.413,172.518c-0.117,0.475-0.22,0.969-0.115,1.447c0.001,0.005,0.002,0.01,0.003,0.014
								c0.134,0.587,0.989,0.619,1.205,0.055c0.695-1.817,2.278-3.314,4.194-3.887c1.465-0.438,3.284-0.491,3.735-2.254
								c0.081-0.317,0.008-0.641-0.106-0.949c-0.002-0.006-0.004-0.013-0.007-0.019C84.121,164.483,77.591,167.737,76.413,172.518z"
								/>
						</g>
					</g>
					<path style="opacity:0.4;fill:#FFFFFF;" d="M86.42,167.469c-0.125,0.496-0.006,1.072,0.393,1.405
						c0.318,0.266,0.76,0.343,1.179,0.358c0.434,0.016,0.915-0.046,1.205-0.359c0.352-0.38,0.281-0.981,0.05-1.439
						C88.533,166.016,86.872,165.686,86.42,167.469z"/>
				</g>
				<g>
					<g>
						<g>
							<g>
								<path style="fill:#263238;" d="M88.315,196.563v2.615c-1.092,0.134-2.208,0.198-3.341,0.198
									c-1.133,0-2.249-0.063-3.349-0.198v-2.615H88.315z"/>
							</g>
							
								<line style="fill:none;stroke:#263238;stroke-width:4;stroke-linecap:round;stroke-linejoin:round;stroke-miterlimit:10;" x1="84.97" y1="411.266" x2="84.97" y2="224.454"/>
						</g>
					</g>
				</g>
			</g>
			<g>
				<path style="fill:#407BFF;" d="M113.015,172.187c0,11.212-7.002,20.84-16.996,24.994c-4.618,1.919-7.704,6.212-7.704,11.082
					v16.192h-6.69v-16.192c0-4.87-3.086-9.163-7.704-11.082c-9.994-4.154-16.996-13.782-16.996-24.994H113.015z"/>
			</g>
		</g>
		<path style="fill:#407BFF;" d="M53.585,414.008c0.061,0.051,0.133,0.112,0.214,0.173c-0.184-0.031-0.357-0.051-0.541-0.082
			L53.585,414.008z"/>
		<path style="fill:#407BFF;" d="M116.991,414.1c0,0-0.184,0.031-0.53,0.071c0.081-0.051,0.143-0.112,0.204-0.163L116.991,414.1z"/>
		<path style="fill:#263238;" d="M116.991,413.386c0,0.214-0.112,0.418-0.326,0.622c-0.061,0.051-0.122,0.112-0.204,0.163
			c-2.723,2.009-15.716,3.539-31.341,3.539c-15.594,0-28.577-1.52-31.32-3.529c-0.082-0.061-0.153-0.122-0.214-0.173
			c-0.214-0.204-0.326-0.408-0.326-0.622c0-1.078,2.879-2.059,7.643-2.815c6.779-1.075,13.477-2.627,20.067-4.546l1.234-0.359h5.701
			l1.31,0.379c6.536,1.893,13.171,3.444,19.895,4.489C114.017,411.296,116.991,412.293,116.991,413.386z"/>
	</g>
</g>
<g id="Light_Bulb">
	<g>
		<g>
			<g>
				<g>
					<g>
						<polygon style="fill:#407BFF;" points="268.577,188.085 254.465,183.292 252.285,176.836 274.238,184.291 						"/>
						<polygon style="opacity:0.5;fill:#FFFFFF;" points="268.577,188.085 254.465,183.292 252.285,176.836 274.238,184.291 						
							"/>
					</g>
					<g>
						<g>
							<g>
								<path style="fill:#407BFF;" d="M314.609,130.538c-3.13,9.114-9.915,15.969-18.152,19.453
									c-5.672,2.39-10.179,6.878-12.161,12.715l-0.796,2.344l-26.934-9.146l0.796-2.344c1.977-5.821,1.14-12.141-1.893-17.47
									c-4.438-7.806-5.65-17.412-2.53-26.6c5.973-17.589,25.469-26.742,42.937-19.792
									C311.845,96.051,320.17,114.266,314.609,130.538z"/>
								<path style="opacity:0.5;fill:#FFFFFF;" d="M314.609,130.538c-3.13,9.114-9.915,15.969-18.152,19.453
									c-5.672,2.39-10.179,6.878-12.161,12.715l-0.796,2.344l-26.934-9.146l0.796-2.344c1.977-5.821,1.14-12.141-1.893-17.47
									c-4.438-7.806-5.65-17.412-2.53-26.6c5.973-17.589,25.469-26.742,42.937-19.792
									C311.845,96.051,320.17,114.266,314.609,130.538z"/>
								
									<ellipse transform="matrix(0.4793 -0.8777 0.8777 0.4793 29.1979 314.277)" style="opacity:0.4;fill:#FFFFFF;" cx="279.444" cy="132.533" rx="20.697" ry="20.697"/>
								<g>
									<g>
										<path style="fill:#407BFF;" d="M265.727,159.106l3.404-26.881c0.056-0.439,0.457-0.75,0.896-0.694h0
											c0.439,0.056,0.749,0.457,0.693,0.896l-3.404,26.882L265.727,159.106z"/>
									</g>
									<g>
										<path style="fill:#407BFF;" d="M274.443,162.103l-1.385-0.807l13.67-23.396c0.223-0.382,0.714-0.511,1.095-0.288l0,0
											c0.383,0.223,0.512,0.714,0.288,1.096L274.443,162.103z"/>
									</g>
									<g>
										<polygon style="fill:#407BFF;" points="278.153,146.866 276.978,140.316 272.05,144.792 268.566,136.266 270.051,135.66 
											272.668,142.068 278.042,137.181 279.326,144.327 285.302,140.839 286.111,142.224 										"/>
									</g>
								</g>
								<g>
									<path style="fill:#407BFF;" d="M284.408,169.704c-0.646,1.889-2.695,2.896-4.579,2.26l-3.481-1.175
										c-0.266-0.021-0.543-0.077-0.81-0.168l-20.11-6.792c-1.891-0.639-2.906-2.69-2.267-4.581
										c0.637-1.861,2.632-2.869,4.501-2.284l0.078,0.024l3.481,1.175c0.242,0.021,0.492,0.068,0.733,0.144l0.078,0.024
										l20.111,6.792C284.033,165.761,285.047,167.812,284.408,169.704z"/>
									<path style="fill:#407BFF;" d="M280.979,175.878c-0.642,1.89-2.581,2.932-4.332,2.337l-3.235-1.098
										c-0.248-0.016-0.507-0.065-0.755-0.151l-18.691-6.348c-1.758-0.597-2.666-2.615-2.031-4.507
										c0.633-1.862,2.521-2.904,4.26-2.36l0.072,0.023l3.235,1.098c0.226,0.016,0.459,0.058,0.683,0.128l0.072,0.023
										l18.691,6.348C280.707,171.967,281.615,173.985,280.979,175.878z"/>
									<path style="fill:#407BFF;" d="M277.551,182.051c-0.639,1.891-2.466,2.968-4.085,2.415l-2.989-1.021
										c-0.231-0.01-0.471-0.054-0.7-0.134l-17.271-5.904c-1.625-0.555-2.427-2.54-1.794-4.434
										c0.63-1.863,2.411-2.939,4.018-2.436l0.067,0.021l2.989,1.021c0.21,0.011,0.426,0.048,0.633,0.113l0.067,0.021
										l17.271,5.904C277.381,178.173,278.184,180.158,277.551,182.051z"/>
								</g>
								<g>
									<polygon style="fill:#407BFF;" points="250.904,178.917 251.525,177.053 274.623,184.845 274.003,186.708 									"/>
								</g>
								<g>
									
										<rect x="269.076" y="146.181" transform="matrix(0.3159 -0.9488 0.9488 0.3159 32.5452 365.9538)" style="fill:#407BFF;" width="1.964" height="28.453"/>
								</g>
							</g>
						</g>
					</g>
				</g>
				<g style="opacity:0.4;">
					<path style="fill:#FFFFFF;" d="M258.276,105.322c-0.895,1.443-1.764,2.964-1.954,4.651c-0.002,0.017-0.004,0.034-0.005,0.051
						c-0.215,2.08,2.486,3.092,3.793,1.461c4.213-5.256,10.915-8.514,17.67-8.367c5.164,0.112,11.039,1.869,14.413-3.468
						c0.607-0.96,0.727-2.107,0.701-3.242c0-0.023,0.002-0.046-0.001-0.068C291.723,87.003,267.28,90.801,258.276,105.322z"/>
				</g>
			</g>
			<path style="opacity:0.4;fill:#FFFFFF;" d="M295.805,99.295c-0.945,1.503-1.195,3.529-0.282,5.051
				c0.727,1.214,2.053,1.939,3.379,2.435c1.371,0.512,2.975,0.821,4.246,0.096c1.539-0.878,1.974-2.938,1.738-4.695
				C304.153,96.745,299.202,93.891,295.805,99.295z"/>
		</g>
		<g>
			<path style="fill:#FFFFFF;stroke:#407BFF;stroke-width:1.5;stroke-miterlimit:10;" d="M255.628,63.653
				c3.797,5.302,7.593,10.603,11.39,15.905"/>
			<path style="fill:#FFFFFF;stroke:#407BFF;stroke-width:1.5;stroke-miterlimit:10;" d="M213.587,88.175
				c8.957,4.282,17.914,8.563,26.871,12.844"/>
			<path style="fill:#FFFFFF;stroke:#407BFF;stroke-width:1.5;stroke-miterlimit:10;" d="M216.607,136.062
				c6.697,0.222,13.393,0.445,20.09,0.667"/>
		</g>
		<g>
			<path style="fill:#FFFFFF;stroke:#407BFF;stroke-width:1.5;stroke-miterlimit:10;" d="M338.207,91.767
				c-6.243,1.884-12.486,3.767-18.729,5.651"/>
			<path style="fill:#FFFFFF;stroke:#407BFF;stroke-width:1.5;stroke-miterlimit:10;" d="M356.552,136.847
				c-9.709-2.073-19.418-4.147-29.126-6.22"/>
			<path style="fill:#FFFFFF;stroke:#407BFF;stroke-width:1.5;stroke-miterlimit:10;" d="M324.94,172.944
				c-5.441-3.91-10.882-7.82-16.324-11.73"/>
		</g>
	</g>
</g>
<g id="Lamp_2">
	<g>
		<g>
			<g>
				<g>
					<g>
						<g>
							<polygon style="fill:#407BFF;" points="400.116,113.696 403.277,113.717 404.148,114.871 399.23,114.838 							"/>
							<polygon style="opacity:0.5;fill:#FFFFFF;" points="400.116,113.696 403.277,113.717 404.148,114.871 399.23,114.838 							
								"/>
						</g>
						<g>
							<g>
								<g>
									<path style="fill:#407BFF;" d="M394.698,128.357c0.021-2.044,0.928-3.877,2.353-5.129c0.982-0.86,1.589-2.065,1.598-3.372
										l0.004-0.525l6.033,0.04l-0.004,0.525c-0.009,1.304,0.582,2.52,1.549,3.39c1.415,1.275,2.301,3.127,2.288,5.185
										c-0.026,3.94-3.339,7.086-7.32,6.855C397.56,135.114,394.666,132.004,394.698,128.357z"/>
									<path style="opacity:0.5;fill:#FFFFFF;" d="M394.698,128.357c0.021-2.044,0.928-3.877,2.353-5.129
										c0.982-0.86,1.589-2.065,1.598-3.372l0.004-0.525l6.033,0.04l-0.004,0.525c-0.009,1.304,0.582,2.52,1.549,3.39
										c1.415,1.275,2.301,3.127,2.288,5.185c-0.026,3.94-3.339,7.086-7.32,6.855C397.56,135.114,394.666,132.004,394.698,128.357
										z"/>
									<g>
										<g>
											<path style="fill:#407BFF;" d="M402.627,119.338l1.112,5.638c0.018,0.092-0.042,0.182-0.134,0.2h0
												c-0.092,0.018-0.181-0.042-0.199-0.134l-1.112-5.639L402.627,119.338z"/>
										</g>
										<g>
											<path style="fill:#407BFF;" d="M400.673,119.318l0.333,0.07l-1.187,5.623c-0.019,0.092-0.109,0.15-0.201,0.131l0,0
												c-0.092-0.019-0.151-0.11-0.131-0.201L400.673,119.318z"/>
										</g>
										<g>
											<polygon style="fill:#407BFF;" points="400.944,122.633 401.619,123.873 402.311,122.642 403.583,124.126 
												403.324,124.347 402.369,123.232 401.614,124.575 400.878,123.223 399.908,124.324 399.653,124.099 											"/>
										</g>
									</g>
									<g>
										<path style="fill:#407BFF;" d="M398.159,118.454c0.004-0.424,0.349-0.763,0.771-0.761l0.779,0.004
											c0.055-0.014,0.115-0.021,0.174-0.02l4.502,0.023c0.423,0.002,0.765,0.347,0.763,0.771
											c-0.004,0.417-0.338,0.754-0.753,0.761l-0.017,0l-0.779-0.004c-0.05,0.012-0.104,0.019-0.157,0.02l-0.017,0l-4.502-0.023
											C398.498,119.223,398.156,118.878,398.159,118.454z"/>
										<path style="fill:#407BFF;" d="M398.436,116.982c0.003-0.423,0.323-0.763,0.716-0.76l0.725,0.005
											c0.051-0.013,0.107-0.021,0.162-0.02l4.187,0.028c0.394,0.003,0.712,0.348,0.71,0.772c-0.003,0.417-0.313,0.753-0.7,0.76
											l-0.016,0l-0.725-0.005c-0.047,0.012-0.096,0.019-0.146,0.02l-0.016,0l-4.187-0.028
											C398.752,117.751,398.434,117.406,398.436,116.982z"/>
										<path style="fill:#407BFF;" d="M398.713,115.51c0.002-0.423,0.298-0.762,0.661-0.759l0.67,0.006
											c0.047-0.013,0.098-0.021,0.15-0.02l3.871,0.034c0.364,0.003,0.658,0.349,0.658,0.772
											c-0.002,0.417-0.289,0.753-0.646,0.759l-0.015,0l-0.67-0.006c-0.043,0.012-0.089,0.019-0.135,0.02l-0.015,0l-3.871-0.034
											C399.007,116.28,398.712,115.934,398.713,115.51z"/>
									</g>
									<g>
										<polygon style="fill:#407BFF;" points="404.287,114.36 404.286,114.776 399.116,114.752 399.116,114.336 										"/>
									</g>
									<g>
										<rect x="398.651" y="119.158" style="fill:#407BFF;" width="6.035" height="0.417"/>
									</g>
								</g>
							</g>
						</g>
					</g>
					<g style="opacity:0.4;">
						<path style="fill:#FFFFFF;" d="M407.723,129.666c0.084-0.35,0.157-0.715,0.082-1.067c-0.001-0.003-0.001-0.007-0.002-0.01
							c-0.096-0.433-0.707-0.456-0.861-0.04c-0.497,1.34-1.628,2.443-2.997,2.866c-1.047,0.323-2.347,0.362-2.669,1.662
							c-0.058,0.234-0.005,0.473,0.076,0.699c0.002,0.005,0.003,0.009,0.005,0.014C402.215,135.59,406.881,133.191,407.723,129.666z
							"/>
					</g>
				</g>
				<path style="opacity:0.4;fill:#FFFFFF;" d="M400.572,133.389c0.09-0.366,0.005-0.79-0.281-1.036
					c-0.228-0.196-0.543-0.253-0.843-0.264c-0.31-0.012-0.654,0.034-0.861,0.265c-0.251,0.28-0.201,0.723-0.036,1.061
					C399.062,134.46,400.249,134.704,400.572,133.389z"/>
			</g>
			<g>
				<g>
					<g>
						<g>
							<rect x="399.219" y="89.573" style="fill:#263238;" width="4.777" height="20.561"/>
						</g>
						
							<line style="fill:none;stroke:#263238;stroke-linecap:round;stroke-linejoin:round;stroke-miterlimit:10;" x1="401.608" y1="55.203" x2="401.608" y2="89.573"/>
					</g>
					
						<line style="fill:none;stroke:#FFFFFF;stroke-linecap:round;stroke-linejoin:round;stroke-miterlimit:10;" x1="399.209" y1="104.947" x2="404.059" y2="104.947"/>
				</g>
			</g>
		</g>
		<g>
			<path style="fill:#263238;" d="M381.566,128.106c0-11.069,8.973-20.042,20.042-20.042s20.042,8.973,20.042,20.042H381.566z"/>
		</g>
	</g>
</g>
</svg>
