<svg width="437" height="497" viewBox="0 0 437 497" fill="none" xmlns="http://www.w3.org/2000/svg">
<path d="M402.902 359.989L174.002 492.132C167.442 495.909 155.991 495.432 148.436 491.078L9.03716 409.928C1.46285 405.554 -0.366166 388.596 6.19426 384.819L236.108 263.014C242.668 259.237 254.119 259.714 261.673 264.067L404.373 336.391C411.927 340.765 409.462 356.212 402.902 359.989Z" fill="#1C1C1C"/>
<path d="M162.878 496.863C157.49 496.863 151.864 495.551 147.351 492.947L7.9322 411.796C2.48505 408.655 0 400.683 0 394.6C0 389.073 1.84884 384.839 5.0893 382.97L235.062 261.125C242.259 256.97 254.425 257.447 262.715 262.218L405.295 334.483C409.053 336.65 411.14 340.983 411.14 346.45C411.14 353.071 408.178 359.412 403.944 361.858L175.044 494C171.784 495.929 167.43 496.863 162.878 496.863ZM247.149 262.636C243.372 262.636 239.794 263.372 237.189 264.882L7.19658 386.727C5.44714 387.741 4.33385 390.763 4.33385 394.6C4.33385 400.465 6.75922 406.13 10.119 408.079L149.538 489.229C156.377 493.185 167.112 493.663 172.957 490.283L401.856 358.14C404.739 356.47 406.906 351.46 406.906 346.45C406.906 342.574 405.594 339.592 403.307 338.28L260.727 266.016C256.851 263.769 251.841 262.636 247.149 262.636Z" fill="#1C1C1C"/>
<path d="M402.899 348.995L174 481.138C167.439 484.915 155.988 484.438 148.434 480.085L9.03477 398.934C1.46046 394.56 0.645347 387.96 7.20578 384.163L236.105 252.02C242.666 248.243 254.117 248.7 261.671 253.074L401.07 334.224C408.645 338.598 409.46 345.198 402.899 348.995Z" fill="#FABD31"/>
<path d="M162.867 485.87C157.48 485.87 151.854 484.558 147.341 481.953L7.9217 400.803C3.26976 398.119 0.585938 394.401 0.585938 390.584C0.585938 387.304 2.53417 384.362 6.0927 382.314L234.992 250.171C242.248 245.977 254.435 246.454 262.725 251.225L402.144 332.375C406.796 335.059 409.48 338.777 409.48 342.594C409.48 345.874 407.531 348.816 403.973 350.864L175.074 483.007C171.773 484.915 167.42 485.87 162.867 485.87ZM247.159 251.623C243.362 251.623 239.783 252.358 237.159 253.869L8.25962 386.012C6.72886 386.887 4.89988 388.398 4.89988 390.565C4.89988 392.751 6.84817 395.177 10.0886 397.045L149.508 478.196C156.346 482.152 167.082 482.629 172.926 479.25L401.826 347.107C403.357 346.232 405.186 344.721 405.186 342.554C405.186 340.367 403.237 337.942 399.997 336.073L260.578 254.923C256.801 252.756 251.831 251.623 247.159 251.623Z" fill="#1C1C1C"/>
<path d="M401.349 334.224L261.95 253.074C261.851 253.014 261.751 252.994 261.672 252.934L390.038 327.703C397.612 332.077 398.427 338.677 391.867 342.474L162.967 474.617C156.486 478.355 145.254 477.917 137.68 473.703L148.713 480.084C156.287 484.458 167.738 484.935 174.279 481.138L403.178 348.995C409.739 345.198 408.924 338.598 401.349 334.224Z" fill="#1C1C1C"/>
<path d="M163.174 485.373C157.886 485.373 152.34 484.06 147.906 481.516L149.556 478.653C156.654 482.748 167.389 483.225 173.472 479.707L402.371 347.564C405.672 345.655 406.745 343.111 405.413 340.367L408.395 338.916C410.502 343.25 408.813 347.663 404.022 350.426L175.122 482.569C171.882 484.458 167.607 485.373 163.174 485.373Z" fill="#FABD31"/>
<path d="M120.446 395.177L83.2102 416.667C80.6854 418.118 76.2919 417.939 73.3695 416.25L53.7479 404.918C50.8454 403.228 50.5273 400.703 53.0322 399.232L90.2676 377.742C92.7924 376.291 97.1859 376.47 100.108 378.159L119.73 389.491C122.652 391.181 122.97 393.725 120.446 395.177Z" fill="#FABD31"/>
<path d="M78.9395 419.808C76.6334 419.808 74.2279 419.251 72.3194 418.138L52.6978 406.806C50.4911 405.534 49.2188 403.685 49.2188 401.737C49.2188 400.007 50.2326 398.437 52.002 397.403L89.2374 375.913C92.3983 374.084 97.6665 374.263 101.225 376.31L120.847 387.642C123.053 388.914 124.326 390.763 124.326 392.711C124.326 394.441 123.312 396.012 121.543 397.045L84.3071 418.536C82.836 419.391 80.9275 419.808 78.9395 419.808ZM94.5255 378.935C93.3128 378.935 92.1598 379.153 91.3646 379.63L54.1291 401.121C53.6719 401.379 53.493 401.638 53.493 401.717C53.493 401.876 53.7315 402.433 54.825 403.069L74.4466 414.401C76.693 415.693 80.2714 415.872 82.1203 414.798L119.356 393.308C119.813 393.049 119.992 392.791 119.992 392.711C119.992 392.572 119.753 391.996 118.66 391.36L99.0383 380.028C97.7858 379.312 96.096 378.935 94.5255 378.935Z" fill="white"/>
<path d="M102.26 405.693L101.425 406.17C98.3439 407.959 92.9365 407.721 89.378 405.673L72.122 395.713C68.5635 393.646 68.1659 390.544 71.2473 388.755L72.0823 388.278C75.1637 386.489 80.5711 386.727 84.1296 388.775L101.386 398.735C104.944 400.783 105.342 403.904 102.26 405.693Z" fill="#FABD31"/>
<path d="M96.1755 409.51C93.432 409.51 90.5693 408.834 88.303 407.522L71.0471 397.562C68.4825 396.091 67.0312 393.964 67.0312 391.757C67.0312 389.809 68.1843 388.039 70.1922 386.867L71.0272 386.389C74.7646 384.222 81.0069 384.461 85.2215 386.886L102.477 396.846C105.042 398.317 106.493 400.425 106.513 402.651C106.513 404.6 105.36 406.369 103.352 407.542L102.517 408.019C100.768 409.033 98.5213 409.51 96.1755 409.51ZM77.2894 389.232C75.699 389.232 74.2279 389.53 73.1544 390.147L72.3194 390.624C72.0212 390.803 71.3055 391.26 71.3055 391.777C71.3055 392.274 71.882 393.109 73.1742 393.844L90.4302 403.804C93.2929 405.454 97.9249 405.693 100.33 404.301L101.165 403.824C101.464 403.645 102.179 403.188 102.179 402.671C102.179 402.174 101.603 401.339 100.311 400.604L83.0546 390.644C81.4443 389.709 79.2973 389.232 77.2894 389.232Z" fill="white"/>
<path d="M84.1215 401.378L66.9609 411.299L69.1101 415.016L86.2707 405.096L84.1215 401.378Z" fill="white"/>
<path d="M75.2133 396.267L58.0547 406.188L60.2039 409.905L77.3625 399.985L75.2133 396.267Z" fill="white"/>
<path d="M112.862 384.701L95.7031 394.621L97.8523 398.338L115.011 388.418L112.862 384.701Z" fill="white"/>
<path d="M104.041 379.625L86.8828 389.545L89.032 393.262L106.191 383.342L104.041 379.625Z" fill="white"/>
<path d="M264.005 294.882C271.421 299.156 271.421 306.114 264.005 310.388C256.59 314.663 244.563 314.663 237.147 310.388C229.732 306.114 229.732 299.156 237.147 294.882C244.563 290.608 256.59 290.608 264.005 294.882Z" fill="#FABD31"/>
<path d="M250.567 315.776C245.338 315.776 240.129 314.603 236.054 312.257C231.78 309.792 229.414 306.372 229.414 302.635C229.414 298.898 231.78 295.498 236.054 293.013C244.185 288.321 256.928 288.321 265.059 293.013C269.333 295.478 271.699 298.898 271.699 302.635C271.699 306.372 269.333 309.772 265.059 312.257C261.004 314.603 255.795 315.776 250.567 315.776ZM250.567 293.848C246.074 293.848 241.561 294.822 238.221 296.751C235.318 298.42 233.728 300.508 233.728 302.635C233.728 304.762 235.318 306.85 238.221 308.52C244.921 312.376 256.232 312.376 262.932 308.52C265.834 306.85 267.425 304.762 267.425 302.635C267.425 300.508 265.834 298.42 262.932 296.751C259.572 294.822 255.079 293.848 250.567 293.848Z" fill="white"/>
<path d="M277.419 287.129C284.835 291.403 284.835 298.361 277.419 302.635C270.004 306.909 257.977 306.909 250.561 302.635C243.146 298.361 243.146 291.403 250.561 287.129C257.977 282.854 270.004 282.854 277.419 287.129Z" fill="#FABD31"/>
<path d="M263.996 308.022C258.768 308.022 253.559 306.85 249.484 304.504C245.209 302.039 242.844 298.619 242.844 294.882C242.844 291.144 245.209 287.745 249.484 285.26C257.615 280.568 270.358 280.568 278.489 285.26C282.763 287.725 285.129 291.144 285.129 294.882C285.129 298.619 282.763 302.019 278.489 304.504C274.433 306.85 269.205 308.022 263.996 308.022ZM263.996 286.095C259.503 286.095 254.99 287.069 251.651 288.997C248.748 290.667 247.158 292.755 247.158 294.882C247.158 297.009 248.748 299.096 251.651 300.766C258.35 304.623 269.662 304.623 276.362 300.766C279.264 299.096 280.854 297.009 280.854 294.882C280.854 292.755 279.264 290.667 276.362 288.997C273.002 287.069 268.489 286.095 263.996 286.095Z" fill="white"/>
<path d="M124.594 433.863C127.358 435.473 128.968 436.905 129.405 438.217C129.823 439.509 129.087 440.702 127.199 441.795C125.37 442.849 123.282 443.246 120.976 442.988C118.67 442.73 116.165 441.815 113.481 440.264C110.678 438.654 109.068 437.183 108.631 435.891C108.213 434.599 108.929 433.406 110.818 432.312C112.647 431.259 114.734 430.861 117.06 431.12C119.406 431.398 121.911 432.312 124.594 433.863ZM116.821 438.356C118.77 439.489 120.34 440.185 121.513 440.483C122.706 440.781 123.68 440.702 124.475 440.225C125.25 439.767 125.39 439.191 124.893 438.515C124.376 437.819 123.163 436.925 121.235 435.811C119.286 434.678 117.716 433.982 116.503 433.684C115.31 433.406 114.316 433.485 113.541 433.923C112.746 434.38 112.607 434.956 113.124 435.632C113.64 436.308 114.873 437.223 116.821 438.356Z" fill="white"/>
<path d="M137.313 426.527C140.096 428.138 141.687 429.569 142.124 430.881C142.542 432.173 141.806 433.366 139.917 434.46C138.089 435.513 136.001 435.911 133.695 435.652C131.389 435.394 128.884 434.479 126.2 432.929C123.397 431.318 121.787 429.847 121.349 428.555C120.932 427.263 121.648 426.07 123.536 424.977C125.365 423.923 127.453 423.525 129.779 423.784C132.124 424.062 134.629 424.977 137.313 426.527ZM129.52 431C131.468 432.133 133.039 432.829 134.212 433.128C135.405 433.426 136.379 433.346 137.174 432.869C137.969 432.412 138.089 431.835 137.592 431.159C137.075 430.464 135.862 429.569 133.934 428.456C131.985 427.323 130.415 426.627 129.202 426.329C128.009 426.05 127.015 426.13 126.24 426.567C125.445 427.024 125.306 427.601 125.823 428.277C126.339 428.973 127.572 429.887 129.52 431Z" fill="white"/>
<path d="M150.016 419.172C152.8 420.782 154.39 422.213 154.827 423.526C155.245 424.818 154.509 426.011 152.621 427.104C150.792 428.158 148.704 428.575 146.398 428.297C144.092 428.038 141.587 427.144 138.903 425.573C136.1 423.963 134.49 422.492 134.053 421.2C133.635 419.907 134.351 418.715 136.239 417.621C138.068 416.568 140.156 416.17 142.482 416.428C144.828 416.727 147.333 417.641 150.016 419.172ZM142.243 423.665C144.192 424.798 145.762 425.494 146.935 425.792C148.128 426.09 149.102 426.011 149.897 425.533C150.672 425.076 150.812 424.5 150.315 423.824C149.798 423.128 148.585 422.233 146.657 421.12C144.708 419.987 143.118 419.291 141.925 418.993C140.732 418.715 139.738 418.794 138.963 419.232C138.168 419.689 138.029 420.265 138.546 420.941C139.062 421.637 140.295 422.551 142.243 423.665Z" fill="white"/>
<path d="M162.743 411.836C165.526 413.446 167.116 414.878 167.554 416.19C167.971 417.482 167.236 418.675 165.347 419.768C163.518 420.822 161.451 421.219 159.125 420.961C156.819 420.702 154.314 419.808 151.63 418.237C148.827 416.627 147.217 415.156 146.779 413.864C146.362 412.571 147.077 411.379 148.966 410.285C150.795 409.232 152.882 408.834 155.208 409.092C157.534 409.391 160.059 410.285 162.743 411.836ZM154.95 416.329C156.898 417.462 158.469 418.158 159.642 418.456C160.815 418.754 161.809 418.675 162.604 418.198C163.379 417.74 163.518 417.164 163.021 416.488C162.504 415.792 161.292 414.897 159.363 413.784C157.415 412.651 155.844 411.955 154.632 411.657C153.439 411.379 152.445 411.458 151.67 411.896C150.874 412.353 150.735 412.929 151.252 413.605C151.769 414.301 153.002 415.196 154.95 416.329Z" fill="white"/>
<path d="M181.235 401.16C184.018 402.771 185.609 404.202 186.046 405.514C186.464 406.806 185.728 407.999 183.839 409.093C182.01 410.146 179.923 410.564 177.617 410.285C175.311 410.027 172.806 409.112 170.122 407.562C167.319 405.951 165.709 404.48 165.271 403.188C164.854 401.896 165.57 400.703 167.458 399.63C169.287 398.576 171.375 398.178 173.7 398.437C176.046 398.715 178.551 399.61 181.235 401.16ZM173.462 405.653C175.41 406.786 176.981 407.482 178.154 407.78C179.327 408.079 180.321 407.979 181.116 407.522C181.891 407.065 182.03 406.488 181.533 405.812C181.016 405.117 179.804 404.222 177.875 403.109C175.927 401.975 174.357 401.28 173.144 400.981C171.951 400.703 170.957 400.763 170.182 401.22C169.387 401.677 169.247 402.254 169.764 402.93C170.281 403.606 171.514 404.52 173.462 405.653Z" fill="white"/>
<path d="M193.938 393.825C196.721 395.435 198.312 396.886 198.749 398.179C199.167 399.471 198.431 400.664 196.542 401.757C194.714 402.811 192.626 403.208 190.32 402.95C188.014 402.691 185.509 401.777 182.825 400.226C180.022 398.616 178.412 397.145 177.974 395.853C177.557 394.56 178.273 393.368 180.161 392.294C181.99 391.24 184.078 390.843 186.404 391.101C188.749 391.36 191.254 392.274 193.938 393.825ZM186.165 398.318C188.113 399.451 189.684 400.147 190.857 400.445C192.05 400.743 193.024 400.664 193.819 400.186C194.594 399.729 194.733 399.153 194.236 398.477C193.739 397.781 192.507 396.886 190.578 395.773C188.63 394.64 187.06 393.944 185.847 393.646C184.654 393.368 183.66 393.427 182.885 393.884C182.09 394.342 181.95 394.918 182.467 395.594C182.984 396.27 184.217 397.185 186.165 398.318Z" fill="white"/>
<path d="M206.661 386.489C209.444 388.099 211.034 389.55 211.471 390.843C211.889 392.135 211.153 393.328 209.265 394.421C207.436 395.475 205.368 395.872 203.062 395.614C200.756 395.355 198.251 394.441 195.567 392.89C192.764 391.28 191.154 389.809 190.717 388.517C190.299 387.224 191.015 386.032 192.903 384.958C194.732 383.904 196.82 383.507 199.146 383.765C201.472 384.024 203.977 384.938 206.661 386.489ZM198.887 390.962C200.836 392.095 202.406 392.791 203.579 393.089C204.752 393.387 205.746 393.308 206.541 392.831C207.317 392.373 207.456 391.797 206.959 391.121C206.442 390.425 205.229 389.531 203.301 388.417C201.353 387.284 199.762 386.588 198.569 386.29C197.377 386.012 196.383 386.091 195.607 386.529C194.812 386.986 194.673 387.562 195.19 388.238C195.707 388.934 196.939 389.849 198.887 390.962Z" fill="white"/>
<path d="M219.368 379.133C222.151 380.744 223.742 382.175 224.179 383.487C224.596 384.779 223.861 385.972 221.972 387.065C220.143 388.119 218.056 388.537 215.75 388.258C213.444 388 210.939 387.085 208.255 385.535C205.452 383.924 203.842 382.453 203.404 381.161C202.987 379.869 203.702 378.676 205.591 377.583C207.42 376.529 209.507 376.131 211.833 376.39C214.179 376.688 216.684 377.583 219.368 379.133ZM211.595 383.626C213.543 384.759 215.114 385.455 216.286 385.753C217.459 386.052 218.453 385.972 219.249 385.495C220.024 385.038 220.163 384.461 219.666 383.785C219.149 383.089 217.937 382.195 216.008 381.082C214.06 379.948 212.489 379.253 211.277 378.954C210.084 378.676 209.09 378.756 208.315 379.193C207.519 379.65 207.38 380.227 207.897 380.903C208.414 381.598 209.647 382.513 211.595 383.626Z" fill="white"/>
<path d="M237.872 368.458C240.655 370.068 242.246 371.499 242.663 372.812C243.081 374.104 242.345 375.297 240.457 376.39C238.628 377.444 236.54 377.841 234.234 377.583C231.928 377.324 229.423 376.41 226.739 374.859C223.936 373.249 222.326 371.778 221.889 370.486C221.471 369.193 222.187 368.001 224.075 366.927C225.904 365.873 227.992 365.476 230.318 365.734C232.683 366.013 235.188 366.907 237.872 368.458ZM230.099 372.951C232.047 374.084 233.618 374.78 234.791 375.078C235.984 375.376 236.958 375.277 237.753 374.819C238.528 374.362 238.667 373.786 238.17 373.11C237.653 372.414 236.441 371.519 234.512 370.406C232.564 369.273 230.994 368.577 229.781 368.279C228.588 368.001 227.594 368.06 226.819 368.517C226.024 368.975 225.884 369.551 226.401 370.227C226.918 370.923 228.151 371.818 230.099 372.951Z" fill="white"/>
<path d="M250.582 361.122C253.366 362.732 254.956 364.163 255.393 365.476C255.811 366.768 255.075 367.961 253.187 369.054C251.358 370.108 249.29 370.525 246.984 370.247C244.678 369.988 242.173 369.074 239.489 367.523C236.686 365.893 235.076 364.442 234.639 363.15C234.221 361.857 234.937 360.665 236.825 359.591C238.654 358.537 240.742 358.14 243.068 358.398C245.394 358.677 247.899 359.571 250.582 361.122ZM242.809 365.615C244.757 366.748 246.328 367.444 247.501 367.742C248.674 368.04 249.668 367.941 250.463 367.483C251.258 367.026 251.378 366.45 250.881 365.774C250.364 365.078 249.151 364.183 247.223 363.05C245.274 361.917 243.684 361.221 242.491 360.923C241.298 360.625 240.304 360.704 239.529 361.162C238.734 361.619 238.595 362.195 239.112 362.871C239.628 363.567 240.861 364.482 242.809 365.615Z" fill="white"/>
<path d="M263.294 353.786C266.057 355.397 267.668 356.848 268.085 358.14C268.503 359.432 267.767 360.625 265.878 361.718C264.05 362.772 261.962 363.17 259.656 362.911C257.35 362.653 254.845 361.738 252.161 360.188C249.358 358.577 247.748 357.106 247.31 355.814C246.893 354.522 247.609 353.329 249.497 352.256C251.326 351.202 253.414 350.804 255.74 351.063C258.105 351.321 260.61 352.236 263.294 353.786ZM255.521 358.279C257.469 359.412 259.04 360.108 260.213 360.406C261.386 360.705 262.38 360.605 263.175 360.148C263.95 359.691 264.089 359.114 263.592 358.438C263.075 357.742 261.863 356.848 259.934 355.735C257.986 354.601 256.416 353.906 255.203 353.607C254.01 353.329 253.016 353.389 252.241 353.846C251.446 354.303 251.306 354.88 251.823 355.556C252.34 356.232 253.573 357.146 255.521 358.279Z" fill="white"/>
<path d="M275.993 346.43C278.776 348.041 280.366 349.492 280.804 350.784C281.221 352.076 280.486 353.269 278.597 354.363C276.768 355.416 274.681 355.814 272.375 355.555C270.069 355.297 267.564 354.382 264.88 352.832C262.077 351.222 260.467 349.75 260.029 348.458C259.612 347.166 260.327 345.973 262.216 344.9C264.045 343.846 266.132 343.448 268.458 343.707C270.804 343.985 273.309 344.9 275.993 346.43ZM268.22 350.923C270.168 352.056 271.739 352.752 272.911 353.05C274.104 353.349 275.078 353.249 275.874 352.792C276.649 352.335 276.788 351.758 276.291 351.082C275.774 350.387 274.562 349.492 272.633 348.379C270.685 347.246 269.114 346.55 267.902 346.251C266.709 345.973 265.715 346.053 264.94 346.49C264.144 346.947 264.005 347.524 264.522 348.2C265.039 348.896 266.272 349.81 268.22 350.923Z" fill="white"/>
<path d="M294.509 335.755C297.292 337.365 298.882 338.797 299.319 340.109C299.737 341.401 299.001 342.594 297.113 343.687C295.284 344.741 293.196 345.139 290.89 344.88C288.584 344.622 286.079 343.707 283.396 342.157C280.592 340.546 278.982 339.075 278.545 337.783C278.127 336.491 278.843 335.298 280.732 334.224C282.561 333.171 284.648 332.773 286.974 333.032C289.32 333.31 291.825 334.204 294.509 335.755ZM286.735 340.248C288.684 341.381 290.254 342.077 291.427 342.375C292.62 342.673 293.594 342.574 294.389 342.117C295.165 341.66 295.304 341.083 294.807 340.407C294.29 339.711 293.077 338.817 291.149 337.683C289.201 336.55 287.63 335.855 286.417 335.556C285.224 335.278 284.231 335.358 283.455 335.795C282.66 336.252 282.521 336.829 283.038 337.505C283.555 338.22 284.767 339.115 286.735 340.248Z" fill="white"/>
<path d="M307.212 328.419C309.995 330.029 311.585 331.461 312.023 332.773C312.44 334.065 311.705 335.258 309.816 336.351C307.987 337.405 305.919 337.803 303.594 337.544C301.287 337.286 298.782 336.371 296.099 334.821C293.296 333.21 291.685 331.739 291.248 330.447C290.83 329.155 291.546 327.962 293.435 326.888C295.264 325.835 297.351 325.437 299.677 325.696C302.023 325.974 304.528 326.869 307.212 328.419ZM299.439 332.912C301.387 334.045 302.957 334.741 304.13 335.039C305.303 335.337 306.297 335.238 307.092 334.781C307.868 334.324 308.007 333.747 307.51 333.071C306.993 332.375 305.78 331.481 303.852 330.348C301.904 329.214 300.333 328.519 299.12 328.22C297.928 327.942 296.934 328.022 296.158 328.459C295.363 328.916 295.224 329.493 295.741 330.169C296.258 330.884 297.49 331.779 299.439 332.912Z" fill="white"/>
<path d="M319.93 321.083C322.714 322.694 324.304 324.125 324.741 325.437C325.159 326.729 324.423 327.922 322.535 329.016C320.706 330.069 318.618 330.467 316.312 330.208C314.006 329.95 311.501 329.035 308.817 327.485C306.014 325.874 304.404 324.403 303.967 323.111C303.549 321.819 304.265 320.626 306.153 319.553C307.982 318.499 310.07 318.101 312.396 318.36C314.742 318.638 317.247 319.533 319.93 321.083ZM312.157 325.576C314.106 326.709 315.676 327.405 316.849 327.703C318.022 328.002 319.016 327.902 319.811 327.445C320.586 326.988 320.726 326.411 320.229 325.735C319.712 325.04 318.499 324.145 316.571 323.012C314.622 321.879 313.052 321.183 311.839 320.885C310.646 320.586 309.652 320.666 308.877 321.123C308.082 321.58 307.943 322.157 308.46 322.833C308.976 323.529 310.209 324.443 312.157 325.576Z" fill="white"/>
<path d="M332.634 313.748C335.417 315.358 337.007 316.789 337.445 318.101C337.862 319.394 337.126 320.586 335.238 321.68C333.409 322.733 331.321 323.131 329.015 322.873C326.709 322.614 324.204 321.7 321.521 320.149C318.717 318.539 317.107 317.068 316.67 315.775C316.252 314.483 316.968 313.29 318.857 312.217C320.686 311.163 322.773 310.766 325.099 311.024C327.445 311.283 329.95 312.197 332.634 313.748ZM324.86 318.241C326.809 319.374 328.379 320.07 329.552 320.368C330.745 320.666 331.719 320.567 332.514 320.109C333.29 319.652 333.429 319.076 332.932 318.4C332.435 317.704 331.202 316.809 329.274 315.696C327.326 314.563 325.755 313.867 324.542 313.569C323.349 313.29 322.356 313.35 321.58 313.807C320.785 314.265 320.646 314.841 321.163 315.517C321.68 316.193 322.912 317.107 324.86 318.241Z" fill="white"/>
<path d="M136.731 448.813C135.996 449.231 135.717 449.728 135.857 450.264C135.996 450.801 136.572 451.378 137.546 451.934C139.594 453.107 141.363 453.266 142.894 452.372C143.53 451.994 144.166 451.457 144.743 450.742L146.373 451.676C145.936 452.292 145.26 452.869 144.326 453.406C142.994 454.181 141.562 454.519 140.051 454.459C138.54 454.4 137.03 453.942 135.519 453.068C134.564 452.511 133.908 451.934 133.55 451.318C133.173 450.702 133.133 450.105 133.391 449.509C133.65 448.913 134.226 448.356 135.101 447.859C135.996 447.342 137.089 446.964 138.421 446.686L139.375 447.958C138.878 448.058 138.381 448.177 137.924 448.316C137.467 448.475 137.069 448.634 136.731 448.813Z" fill="white"/>
<path d="M154.289 447.541L151.446 446.666L148.107 448.595L149.618 450.245L147.53 451.457L141.586 444.3L143.952 442.929L156.377 446.368L154.289 447.541ZM149.359 445.99C146.775 445.195 145.323 444.758 144.985 444.658C144.647 444.559 144.389 444.46 144.21 444.4C144.608 444.797 145.542 445.772 146.993 447.362L149.359 445.99Z" fill="white"/>
<path d="M155.957 442.531L159.476 444.559L157.528 445.672L148.383 440.384L151.047 438.853C152.279 438.138 153.432 437.74 154.486 437.66C155.54 437.581 156.514 437.8 157.448 438.336C157.985 438.654 158.323 439.012 158.442 439.43C158.561 439.847 158.462 440.265 158.164 440.722C161.603 441.12 163.83 441.358 164.844 441.477L162.696 442.73L157.011 441.954L155.957 442.531ZM154.367 441.617L155.003 441.259C155.619 440.901 155.957 440.583 156.056 440.304C156.136 440.026 155.977 439.748 155.52 439.489C155.082 439.231 154.625 439.151 154.148 439.211C153.671 439.271 153.114 439.489 152.478 439.847L151.882 440.185L154.367 441.617Z" fill="white"/>
<path d="M168.899 433.724C170.41 434.599 171.125 435.513 171.086 436.468C171.026 437.422 170.191 438.376 168.581 439.31L165.996 440.801L156.852 435.513L159.734 433.843C161.225 432.989 162.776 432.531 164.386 432.531C165.977 432.511 167.487 432.909 168.899 433.724ZM166.951 434.917C164.983 433.784 163.134 433.724 161.404 434.718L160.37 435.315L166.334 438.754L167.169 438.277C169.018 437.183 168.959 436.07 166.951 434.917Z" fill="white"/>
<path d="M186.292 429.072L184.364 430.186L180.408 427.899L176.79 429.987L180.726 432.273L178.778 433.386L169.633 428.098L171.581 426.985L175.159 429.052L178.778 426.965L175.199 424.897L177.128 423.784L186.292 429.072Z" fill="white"/>
<path d="M192.315 420.285C193.826 421.16 194.621 422.034 194.681 422.949C194.741 423.844 194.085 424.698 192.673 425.514C191.282 426.329 189.791 426.706 188.22 426.667C186.65 426.627 185.119 426.17 183.588 425.295C182.057 424.42 181.282 423.525 181.222 422.631C181.163 421.736 181.858 420.881 183.25 420.066C184.662 419.251 186.133 418.874 187.683 418.893C189.254 418.953 190.785 419.41 192.315 420.285ZM185.636 424.142C186.65 424.738 187.624 425.056 188.518 425.136C189.433 425.215 190.268 425.017 191.043 424.579C192.594 423.685 192.335 422.651 190.288 421.458C188.22 420.265 186.431 420.126 184.88 421.001C184.105 421.438 183.787 421.935 183.906 422.452C184.045 422.989 184.622 423.545 185.636 424.142Z" fill="white"/>
<path d="M198.793 421.836L189.648 416.548L191.597 415.434L199.151 419.788L202.869 417.641L204.459 418.555L198.793 421.836Z" fill="white"/>
<path d="M208.954 410.604C210.464 411.478 211.18 412.393 211.14 413.347C211.081 414.301 210.246 415.256 208.635 416.19L206.051 417.681L196.906 412.393L199.789 410.743C201.28 409.888 202.83 409.431 204.441 409.411C206.031 409.371 207.542 409.769 208.954 410.604ZM206.985 411.777C205.017 410.643 203.168 410.584 201.439 411.578L200.405 412.174L206.369 415.613L207.204 415.136C209.073 414.063 208.993 412.95 206.985 411.777Z" fill="white"/>
<path d="M220.78 409.152L215.512 412.194L206.367 406.906L211.635 403.864L213.226 404.779L209.906 406.707L211.914 407.86L215.015 406.071L216.605 406.985L213.504 408.775L215.87 410.127L219.19 408.198L220.78 409.152Z" fill="white"/>
<path d="M221.129 404.898L224.648 406.926L222.7 408.039L213.555 402.751L216.219 401.22C217.451 400.504 218.604 400.107 219.658 400.027C220.712 399.948 221.686 400.166 222.62 400.703C223.157 401.021 223.495 401.379 223.614 401.777C223.733 402.194 223.634 402.632 223.336 403.069C226.775 403.467 229.002 403.705 230.015 403.824L227.868 405.077L222.183 404.302L221.129 404.898ZM219.558 403.983L220.195 403.626C220.811 403.268 221.149 402.95 221.248 402.671C221.328 402.393 221.169 402.115 220.731 401.856C220.294 401.598 219.837 401.518 219.36 401.578C218.883 401.638 218.326 401.856 217.69 402.214L217.113 402.552L219.558 403.983Z" fill="white"/>
<path d="M13.1829 400.365H9.88281V411.359H13.1829V400.365Z" fill="#FABD31"/>
<path d="M394.456 354.462H391.156V365.456H394.456V354.462Z" fill="#FABD31"/>
<path d="M22.4173 405.852H19.1172V416.846H22.4173V405.852Z" fill="#FABD31"/>
<path d="M150.37 478.494H147.07V491.078H150.37V478.494Z" fill="#FABD31"/>
<path d="M284.755 381.539C287.896 384.103 285.292 387.722 284.795 388.338C284.775 388.378 284.835 388.398 284.874 388.398C285.968 388.119 292.21 386.608 296.663 388.417C296.723 388.437 296.802 388.398 296.743 388.358C293.602 385.793 296.246 382.155 296.763 381.539C296.783 381.499 296.723 381.479 296.683 381.479C295.59 381.777 289.288 383.288 284.835 381.479C284.775 381.459 284.715 381.499 284.755 381.539Z" fill="#1C1C1C"/>
<path d="M301.81 371.698C304.951 374.263 302.347 377.881 301.85 378.497C301.83 378.537 301.889 378.557 301.929 378.557C303.022 378.279 309.265 376.768 313.718 378.577C313.778 378.597 313.857 378.557 313.797 378.517C310.656 375.953 313.3 372.315 313.817 371.698C313.837 371.659 313.778 371.639 313.738 371.639C312.644 371.937 306.342 373.448 301.889 371.639C301.83 371.619 301.77 371.659 301.81 371.698Z" fill="#1C1C1C"/>
<path d="M318.87 361.838C322.011 364.402 319.407 368.02 318.91 368.637C318.89 368.676 318.95 368.696 318.989 368.696C320.083 368.418 326.325 366.907 330.778 368.716C330.838 368.736 330.917 368.696 330.858 368.657C327.717 366.092 330.361 362.454 330.878 361.838C330.897 361.798 330.838 361.778 330.798 361.778C329.705 362.076 323.403 363.587 318.969 361.778C318.91 361.758 318.83 361.798 318.87 361.838Z" fill="#1C1C1C"/>
<path d="M335.925 351.997C339.066 354.562 336.462 358.18 335.965 358.796C335.945 358.836 336.004 358.856 336.044 358.856C337.137 358.577 343.38 357.067 347.833 358.876C347.893 358.896 347.972 358.856 347.912 358.816C344.771 356.252 347.415 352.613 347.932 351.997C347.952 351.957 347.893 351.938 347.853 351.938C346.759 352.236 340.457 353.747 336.024 351.938C335.965 351.918 335.885 351.957 335.925 351.997Z" fill="#1C1C1C"/>
<path d="M353.013 342.137C356.154 344.701 353.55 348.319 353.053 348.936C353.033 348.975 353.093 348.995 353.133 348.995C354.226 348.717 360.468 347.206 364.922 349.015C364.981 349.035 365.061 348.995 365.001 348.956C361.86 346.391 364.504 342.753 365.021 342.137C365.041 342.097 364.981 342.077 364.941 342.077C363.848 342.375 357.546 343.886 353.093 342.077C353.033 342.057 352.954 342.097 353.013 342.137Z" fill="#1C1C1C"/>
<path d="M370.052 332.296C373.193 334.86 370.589 338.479 370.092 339.095C370.072 339.135 370.131 339.155 370.171 339.155C371.265 338.876 377.507 337.365 381.96 339.174C382.02 339.194 382.099 339.155 382.04 339.115C378.899 336.55 381.543 332.912 382.059 332.296C382.079 332.256 382.02 332.236 381.98 332.236C380.887 332.534 374.585 334.045 370.131 332.236C370.072 332.216 370.012 332.256 370.052 332.296Z" fill="#1C1C1C"/>
<path d="M284.675 361.798C287.816 364.363 285.212 367.981 284.715 368.597C284.695 368.637 284.754 368.657 284.794 368.657C285.888 368.378 292.13 366.867 296.583 368.677C296.643 368.696 296.722 368.657 296.663 368.617C293.522 366.052 296.166 362.414 296.682 361.798C296.702 361.758 296.643 361.738 296.603 361.738C295.51 362.037 289.208 363.548 284.754 361.738C284.715 361.719 284.635 361.758 284.675 361.798Z" fill="#1C1C1C"/>
<path d="M301.73 351.957C304.871 354.522 302.266 358.14 301.769 358.756C301.749 358.796 301.809 358.816 301.849 358.816C302.942 358.538 309.185 357.027 313.638 358.836C313.697 358.856 313.777 358.816 313.717 358.776C310.576 356.212 313.22 352.574 313.737 351.957C313.757 351.918 313.697 351.898 313.658 351.898C312.564 352.196 306.262 353.707 301.809 351.898C301.769 351.878 301.69 351.918 301.73 351.957Z" fill="#1C1C1C"/>
<path d="M318.802 342.097C321.943 344.661 319.339 348.28 318.842 348.896C318.822 348.936 318.882 348.956 318.922 348.956C320.015 348.677 326.257 347.166 330.711 348.975C330.77 348.995 330.85 348.956 330.79 348.916C327.649 346.351 330.293 342.713 330.81 342.097C330.83 342.057 330.77 342.037 330.73 342.037C329.637 342.335 323.335 343.846 318.882 342.037C318.822 342.017 318.743 342.057 318.802 342.097Z" fill="#1C1C1C"/>
<path d="M335.864 332.256C339.005 334.821 336.401 338.439 335.904 339.055C335.884 339.095 335.944 339.115 335.983 339.115C337.077 338.836 343.319 337.325 347.772 339.135C347.832 339.154 347.912 339.115 347.852 339.075C344.711 336.51 347.355 332.872 347.872 332.256C347.892 332.216 347.832 332.196 347.792 332.196C346.699 332.495 340.397 334.006 335.964 332.196C335.884 332.177 335.824 332.216 335.864 332.256Z" fill="#1C1C1C"/>
<path d="M352.919 322.396C356.06 324.96 353.456 328.578 352.959 329.195C352.939 329.234 352.999 329.254 353.038 329.254C354.132 328.976 360.374 327.465 364.827 329.274C364.887 329.294 364.966 329.254 364.907 329.215C361.766 326.65 364.41 323.012 364.927 322.396C364.947 322.356 364.887 322.336 364.847 322.336C363.754 322.634 357.452 324.145 352.999 322.336C352.939 322.316 352.879 322.356 352.919 322.396Z" fill="#1C1C1C"/>
<path d="M415.741 182.459C415.741 130.195 379.043 66.6579 333.795 40.5156C312.882 28.4484 293.817 26.4803 279.324 33.0208L277.992 33.7365L263.122 41.9867L254.792 56.4793C247.078 66.4591 251.85 69.6399 251.85 87.8302C251.85 140.095 288.548 203.632 333.795 229.774C349.799 239.018 345.505 238.482 358.129 236.613L377.353 243.631L391.328 235.738L392.601 234.983C406.914 226.196 415.741 208.085 415.741 182.459Z" fill="white"/>
<path d="M377.493 245.44L357.951 238.323C356.937 238.482 356.062 238.621 355.247 238.74C347.753 239.933 347.315 239.833 339.781 235.261C338.011 234.188 335.805 232.856 332.962 231.206C287.317 204.845 250.181 140.532 250.181 87.8303C250.181 81.9259 249.664 77.592 249.267 74.1329C248.412 66.996 247.915 62.682 253.481 55.4655L261.91 40.7741L278.53 31.5696C294.156 24.5321 314.036 27.2159 334.612 39.0843C380.256 65.4453 417.393 129.757 417.393 182.46C417.393 207.767 408.884 226.931 393.457 236.374L392.165 237.13L377.493 245.44ZM358.289 234.903L377.195 241.802L391.747 233.551C406.14 224.744 414.072 206.594 414.072 182.46C414.072 130.811 377.692 67.7713 332.962 41.947C313.34 30.6154 294.533 27.9713 280.001 34.5318L264.316 43.2194L256.205 57.3144C251.334 63.6561 251.712 66.817 252.527 73.7552C252.944 77.3137 253.481 81.747 253.481 87.8502C253.481 139.499 289.862 202.538 334.592 228.363C337.455 230.013 339.681 231.365 341.47 232.438C348.19 236.514 348.17 236.514 354.711 235.48C355.625 235.341 356.679 235.162 357.852 234.983L358.289 234.903Z" fill="#1C1C1C"/>
<path d="M293.203 193.215C305.25 208.204 319.206 220.888 334.116 229.476C350.12 238.72 345.826 238.183 358.45 236.295L377.674 243.313L391.649 235.42L392.922 234.665C407.235 225.898 416.062 207.767 416.062 182.161C416.062 158.663 408.627 132.879 396.341 109.221L326.92 147.55L293.203 193.215Z" fill="#1C1C1C"/>
<path d="M379.038 242.692C411.043 224.214 411.042 164.297 379.037 108.864C347.032 53.4307 295.142 23.4731 263.137 41.9516C231.132 60.43 231.133 120.347 263.138 175.78C295.143 231.213 347.033 261.17 379.038 242.692Z" fill="white"/>
<path d="M357.707 249.833C346.197 249.833 333.453 245.996 320.273 238.382C274.628 212.021 237.492 147.709 237.492 95.007C237.492 69.1231 246.319 49.7599 262.322 40.5156C278.326 31.2714 299.498 33.319 321.923 46.261C367.568 72.622 404.704 136.934 404.704 189.636C404.704 215.52 395.877 234.883 379.873 244.128C373.273 247.945 365.798 249.833 357.707 249.833ZM284.528 38.13C277.014 38.13 270.096 39.8795 263.992 43.3983C249.043 52.0262 240.812 70.3557 240.812 95.0269C240.812 146.675 277.193 209.695 321.923 235.539C343.274 247.865 363.274 249.913 378.203 241.285C393.153 232.657 401.384 214.327 401.384 189.656C401.384 138.008 365.003 74.9678 320.273 49.1436C307.629 41.8277 295.443 38.13 284.528 38.13Z" fill="#1C1C1C"/>
<path d="M370.388 227.767C397.629 212.039 397.625 161.035 370.379 113.845C343.134 66.6561 298.964 41.1517 271.723 56.8798C244.482 72.6079 244.485 123.613 271.731 170.802C298.976 217.991 343.147 243.496 370.388 227.767Z" fill="#FABD31"/>
<path d="M352.253 234.088C342.413 234.088 331.518 230.808 320.266 224.307C281.341 201.843 249.672 146.993 249.672 102.045C249.672 79.918 257.226 63.3579 270.924 55.4456C284.641 47.5333 302.752 49.2629 321.916 60.3361C360.841 82.8006 392.51 137.65 392.51 182.599C392.51 204.725 384.956 221.285 371.259 229.198C365.573 232.458 359.171 234.088 352.253 234.088ZM289.929 53.875C283.567 53.875 277.723 55.3462 272.574 58.3282C259.93 65.6242 252.972 81.1505 252.972 102.064C252.972 145.96 283.886 199.517 321.896 221.464C339.987 231.921 356.925 233.651 369.569 226.355C382.212 219.059 389.171 203.532 389.171 182.619C389.171 138.723 358.257 85.1663 320.246 63.2187C309.531 57.0161 299.193 53.875 289.929 53.875Z" fill="#1C1C1C"/>
<path d="M320.864 105.007L317.047 145.741L324.959 150.313L321.281 105.265C321.281 104.927 320.884 104.708 320.864 105.007Z" fill="white"/>
<path d="M326.859 153.315L315.289 146.636L319.345 103.337L320.975 103.217C321.989 103.217 322.844 104.052 322.943 105.106L326.859 153.315ZM318.788 144.826L323.042 147.292L320.955 121.646L318.788 144.826Z" fill="#1C1C1C"/>
<path d="M321.646 148.62L321.352 151.927L355.986 155.008L356.28 151.701L321.646 148.62Z" fill="#1C1C1C"/>
<path d="M319.843 71.9071L319.766 80.7935L322.31 80.8157L322.388 71.9293L319.843 71.9071Z" fill="#1C1C1C"/>
<path d="M326.215 75.9105L325.32 84.2719L327.85 84.5426L328.745 76.1812L326.215 75.9105Z" fill="#1C1C1C"/>
<path d="M332.588 80.5148L330.898 88.2653L333.385 88.8073L335.074 81.0568L332.588 80.5148Z" fill="#1C1C1C"/>
<path d="M338.726 85.8626L336.258 92.8972L338.659 93.7398L341.127 86.7052L338.726 85.8626Z" fill="#1C1C1C"/>
<path d="M344.805 91.7854L341.586 98.0439L343.849 99.2079L347.068 92.9494L344.805 91.7854Z" fill="#1C1C1C"/>
<path d="M350.577 98.2108L346.633 103.627L348.69 105.125L352.634 99.7088L350.577 98.2108Z" fill="#1C1C1C"/>
<path d="M356.053 105.245L351.445 109.746L353.224 111.566L357.831 107.065L356.053 105.245Z" fill="#1C1C1C"/>
<path d="M361.157 112.52L355.922 116.064L357.348 118.171L362.584 114.627L361.157 112.52Z" fill="#1C1C1C"/>
<path d="M365.86 120.223L360.055 122.776L361.079 125.105L366.884 122.553L365.86 120.223Z" fill="#1C1C1C"/>
<path d="M370.11 128.21L363.812 129.742L364.414 132.214L370.711 130.683L370.11 128.21Z" fill="#1C1C1C"/>
<path d="M373.812 136.35L367.07 136.839L367.254 139.377L373.996 138.888L373.812 136.35Z" fill="#1C1C1C"/>
<path d="M369.815 144.068L369.617 146.605L376.713 147.159L376.911 144.622L369.815 144.068Z" fill="#1C1C1C"/>
<path d="M371.943 151.275L371.406 153.762L378.791 155.356L379.327 152.868L371.943 151.275Z" fill="#1C1C1C"/>
<path d="M373.54 158.348L372.711 160.754L380.304 163.372L381.133 160.966L373.54 158.348Z" fill="#1C1C1C"/>
<path d="M374.485 165.292L373.406 167.596L381.112 171.204L382.191 168.9L374.485 165.292Z" fill="#1C1C1C"/>
<path d="M367.502 167.57L366.219 169.768L381.415 178.637L382.697 176.439L367.502 167.57Z" fill="#1C1C1C"/>
<path d="M374.772 178.181L373.297 180.255L380.976 185.718L382.451 183.644L374.772 178.181Z" fill="#1C1C1C"/>
<path d="M373.952 184.125L372.32 186.077L379.871 192.388L381.503 190.435L373.952 184.125Z" fill="#1C1C1C"/>
<path d="M372.565 189.563L370.797 191.393L378.131 198.48L379.899 196.65L372.565 189.563Z" fill="#1C1C1C"/>
<path d="M370.622 194.514L368.734 196.221L375.773 204.007L377.661 202.301L370.622 194.514Z" fill="#1C1C1C"/>
<path d="M368.15 198.824L366.156 200.405L372.816 208.8L374.809 207.218L368.15 198.824Z" fill="#1C1C1C"/>
<path d="M365.213 202.531L363.125 203.986L369.331 212.892L371.418 211.437L365.213 202.531Z" fill="#1C1C1C"/>
<path d="M361.758 205.648L359.586 206.973L365.28 216.308L367.453 214.982L361.758 205.648Z" fill="#1C1C1C"/>
<path d="M357.819 207.882L355.57 209.073L360.69 218.734L362.938 217.543L357.819 207.882Z" fill="#1C1C1C"/>
<path d="M353.575 209.53L351.258 210.582L355.737 220.448L358.054 219.396L353.575 209.53Z" fill="#1C1C1C"/>
<path d="M348.909 210.456L346.531 211.361L350.329 221.338L352.707 220.433L348.909 210.456Z" fill="#1C1C1C"/>
<path d="M343.987 210.592L341.555 211.341L344.627 221.316L347.059 220.567L343.987 210.592Z" fill="#1C1C1C"/>
<path d="M338.813 209.992L336.336 210.573L338.646 220.425L341.124 219.844L338.813 209.992Z" fill="#1C1C1C"/>
<path d="M333.466 208.642L330.953 209.041L332.482 218.682L334.995 218.283L333.466 208.642Z" fill="#1C1C1C"/>
<path d="M327.967 206.575L325.43 206.773L326.157 216.089L328.694 215.891L327.967 206.575Z" fill="#1C1C1C"/>
<path d="M319.834 195.179L319.766 212.673L322.31 212.683L322.378 195.188L319.834 195.179Z" fill="#1C1C1C"/>
<path d="M314.254 200.13L313.367 208.492L315.898 208.761L316.784 200.398L314.254 200.13Z" fill="#1C1C1C"/>
<path d="M308.76 195.828L307.07 203.578L309.556 204.12L311.246 196.37L308.76 195.828Z" fill="#1C1C1C"/>
<path d="M303.485 190.878L301.016 197.912L303.417 198.755L305.886 191.721L303.485 190.878Z" fill="#1C1C1C"/>
<path d="M298.367 185.422L295.148 191.68L297.411 192.844L300.63 186.586L298.367 185.422Z" fill="#1C1C1C"/>
<path d="M293.439 179.495L289.5 184.914L291.558 186.41L295.497 180.991L293.439 179.495Z" fill="#1C1C1C"/>
<path d="M288.932 173.161L284.328 177.665L286.108 179.484L290.712 174.98L288.932 173.161Z" fill="#1C1C1C"/>
<path d="M284.819 166.4L279.586 169.947L281.014 172.054L286.247 168.507L284.819 166.4Z" fill="#1C1C1C"/>
<path d="M281.024 159.531L275.219 162.083L276.243 164.413L282.048 161.86L281.024 159.531Z" fill="#1C1C1C"/>
<path d="M277.751 152.437L271.453 153.969L272.054 156.441L278.352 154.91L277.751 152.437Z" fill="#1C1C1C"/>
<path d="M274.914 145.201L268.172 145.689L268.356 148.227L275.097 147.739L274.914 145.201Z" fill="#1C1C1C"/>
<path d="M265.51 137.46L265.312 139.997L272.408 140.55L272.606 138.013L265.51 137.46Z" fill="#1C1C1C"/>
<path d="M263.365 129.345L262.828 131.832L270.213 133.425L270.749 130.937L263.365 129.345Z" fill="#1C1C1C"/>
<path d="M261.845 121.278L261.016 123.683L268.609 126.301L269.438 123.895L261.845 121.278Z" fill="#1C1C1C"/>
<path d="M261.017 113.532L259.938 115.836L267.642 119.446L268.722 117.142L261.017 113.532Z" fill="#1C1C1C"/>
<path d="M260.751 105.99L259.469 108.188L274.665 117.055L275.947 114.857L260.751 105.99Z" fill="#1C1C1C"/>
<path d="M261.162 98.8376L259.688 100.911L267.367 106.372L268.842 104.298L261.162 98.8376Z" fill="#1C1C1C"/>
<path d="M262.265 92.2441L260.633 94.1967L268.184 100.507L269.815 98.5549L262.265 92.2441Z" fill="#1C1C1C"/>
<path d="M263.987 86.1458L262.219 87.976L269.553 95.0619L271.322 93.2317L263.987 86.1458Z" fill="#1C1C1C"/>
<path d="M266.325 80.6477L264.438 82.3541L271.477 90.1406L273.364 88.4341L266.325 80.6477Z" fill="#1C1C1C"/>
<path d="M269.306 75.876L267.312 77.4575L273.972 85.8519L275.966 84.2704L269.306 75.876Z" fill="#1C1C1C"/>
<path d="M272.869 71.7541L270.781 73.2089L276.987 82.115L279.075 80.6602L272.869 71.7541Z" fill="#1C1C1C"/>
<path d="M276.891 68.4295L274.719 69.7543L280.411 79.0898L282.584 77.765L276.891 68.4295Z" fill="#1C1C1C"/>
<path d="M281.475 65.8853L279.227 67.0764L284.345 76.7388L286.593 75.5477L281.475 65.8853Z" fill="#1C1C1C"/>
<path d="M286.434 64.1624L284.117 65.2141L288.595 75.0801L290.912 74.0284L286.434 64.1624Z" fill="#1C1C1C"/>
<path d="M291.839 63.3391L289.461 64.2445L293.259 74.2219L295.638 73.3165L291.839 63.3391Z" fill="#1C1C1C"/>
<path d="M297.533 63.2914L295.102 64.0405L298.174 74.0152L300.606 73.2661L297.533 63.2914Z" fill="#1C1C1C"/>
<path d="M303.524 64.2473L301.047 64.8282L303.357 74.6801L305.835 74.0991L303.524 64.2473Z" fill="#1C1C1C"/>
<path d="M309.724 65.973L307.211 66.3715L308.74 76.0125L311.253 75.614L309.724 65.973Z" fill="#1C1C1C"/>
<path d="M316.029 68.575L313.492 68.7729L314.219 78.0886L316.756 77.8906L316.029 68.575Z" fill="#1C1C1C"/>
<path d="M319.852 71.9482L319.766 89.4426L322.31 89.4551L322.396 71.9607L319.852 71.9482Z" fill="#1C1C1C"/>
<path d="M326.73 153.315C326.73 156.655 324.385 158.007 321.502 156.337C318.619 154.667 316.273 150.612 316.273 147.292C316.273 143.952 318.619 142.6 321.502 144.27C324.385 145.94 326.73 149.995 326.73 153.315Z" fill="white"/>
<path d="M323.838 158.703C322.824 158.703 321.731 158.385 320.657 157.768C317.258 155.8 314.594 151.208 314.594 147.292C314.594 145.105 315.449 143.336 316.959 142.481C318.45 141.606 320.399 141.745 322.307 142.839C325.707 144.807 328.371 149.399 328.371 153.315C328.371 155.502 327.516 157.271 326.005 158.126C325.349 158.524 324.613 158.703 323.838 158.703ZM319.146 145.204C318.948 145.204 318.749 145.244 318.61 145.324C318.172 145.582 317.914 146.298 317.914 147.272C317.914 150.015 319.922 153.514 322.307 154.886C323.142 155.363 323.918 155.502 324.355 155.244C324.792 154.985 325.051 154.27 325.051 153.295C325.051 150.552 323.043 147.053 320.657 145.681C320.101 145.383 319.564 145.204 319.146 145.204Z" fill="#1C1C1C"/>
<path d="M330.61 37.7982L317.977 44.9816L319.618 47.8676L332.251 40.6843L330.61 37.7982Z" fill="#1C1C1C"/>
<path d="M390.064 98.5245L377.414 105.718L379.055 108.604L391.705 101.411L390.064 98.5245Z" fill="#1C1C1C"/>
<path d="M306.274 29.3114L293.641 36.4948L295.282 39.3808L307.915 32.1975L306.274 29.3114Z" fill="#1C1C1C"/>
<path d="M394.388 248.123L392.977 245.122C401.048 241.305 407.767 235.639 412.38 228.74C419.218 218.522 426.574 200.352 422.837 171.863L426.117 171.426C429.974 200.928 422.28 219.874 415.123 230.569C410.193 237.985 403.016 244.048 394.388 248.123Z" fill="#1C1C1C"/>
<path d="M386.027 248.56L363.461 259.109L364.867 262.117L387.433 251.568L386.027 248.56Z" fill="#1C1C1C"/>
<path d="M360.015 266.751H356.695V324.423H360.015V266.751Z" fill="#1C1C1C"/>
<path d="M411.626 118.883C376.717 37.1162 314.89 21.5699 314.273 21.4308L315.029 18.2102C315.665 18.3692 379.063 34.2137 414.668 117.591L411.626 118.883Z" fill="#1C1C1C"/>
<path d="M389.602 62.1649C385.845 57.8708 382.008 53.7556 378.211 49.9784L380.557 47.6326C384.394 51.4694 388.29 55.6244 392.087 59.9781L389.602 62.1649Z" fill="#1C1C1C"/>
<path d="M372.874 44.8695C325.977 1.25257 291.445 10.9938 291.107 11.0932L290.133 7.93228C291.604 7.47504 326.692 -2.58429 375.12 42.464L372.874 44.8695Z" fill="#1C1C1C"/>
<path d="M373.32 30.5757C364.275 22.3454 354.235 15.606 343.5 10.5764L344.911 7.57446C355.945 12.7632 366.243 19.6616 375.547 28.1305L373.32 30.5757Z" fill="#1C1C1C"/>
<path d="M337.878 8.11108C328.395 4.2941 321.974 3.28022 321.914 3.28022L322.411 0C322.689 0.0397602 329.25 1.05364 339.11 5.02966L337.878 8.11108Z" fill="#1C1C1C"/>
</svg>
